<?xml version="1.0" encoding="UTF-8" standalone="no"?>
<svg
   id="Ebene_1"
   viewBox="0 0 136.06 136.06"
   version="1.1"
   sodipodi:docname="logo_hub.svg"
   width="136.06"
   height="136.06"
   inkscape:version="1.4.3 (0d15f75042, 2025-12-25)"
   xmlns:inkscape="http://www.inkscape.org/namespaces/inkscape"
   xmlns:sodipodi="http://sodipodi.sourceforge.net/DTD/sodipodi-0.dtd"
   xmlns="http://www.w3.org/2000/svg"
   xmlns:svg="http://www.w3.org/2000/svg">
  <sodipodi:namedview
     id="namedview28"
     pagecolor="#505050"
     bordercolor="#eeeeee"
     borderopacity="1"
     inkscape:showpageshadow="0"
     inkscape:pageopacity="0"
     inkscape:pagecheckerboard="0"
     inkscape:deskcolor="#505050"
     inkscape:zoom="1.5315763"
     inkscape:cx="3.5910715"
     inkscape:cy="213.50552"
     inkscape:window-width="1920"
     inkscape:window-height="1131"
     inkscape:window-x="0"
     inkscape:window-y="0"
     inkscape:window-maximized="1"
     inkscape:current-layer="Ebene_1" />
  <defs
     id="defs1">
    <style
       id="style1">.cls-1{fill:none;}.cls-2{fill:#00376c;}.cls-3{fill:#fff;}</style>
  </defs>
  <g
     id="Bounding_Box"
     transform="translate(-34.020004,-33.309998)">
    <rect
       class="cls-1"
       width="204.09"
       height="202.67999"
       id="rect1"
       x="0"
       y="0" />
  </g>
  <g
     id="Logo_Siegel"
     transform="translate(-34.020004,-33.309998)">
    <circle
       class="cls-3"
       cx="102.05"
       cy="101.34"
       r="68.029999"
       id="circle1" />
    <g
       id="g28">
      <g
         id="g19">
        <g
           id="g18">
          <path
             class="cls-2"
             d="m 57.63,136.66 c 0.51,-0.39 0.6,-1.15 0.21,-1.66 -0.41,-0.52 -1.15,-0.6 -1.66,-0.21 -0.52,0.4 -0.61,1.14 -0.21,1.66 0.39,0.51 1.14,0.62 1.66,0.21 z"
             id="path1" />
          <polygon
             class="cls-2"
             points="64.98,139.27 65.2,139.01 64.74,138.63 63.54,140.05 64,140.44 64.56,139.78 67.74,142.44 59.82,144.49 59.59,144.76 64.75,149.09 65.9,147.71 65.44,147.33 64.71,148.19 61.33,145.35 69.27,143.34 69.5,143.06 "
             id="polygon1" />
          <path
             class="cls-2"
             d="m 80.09,149.51 -2.92,-1.62 -0.32,0.58 1.09,0.6 -2.01,3.63 c -0.65,1.18 -1.9,1.58 -2.99,0.98 -1.06,-0.59 -1.32,-1.8 -0.66,-2.99 l 2.02,-3.65 1.11,0.61 0.32,-0.58 -3.3,-1.83 -0.32,0.58 1.1,0.61 -2.19,3.95 c -0.76,1.37 -0.18,2.99 1.37,3.86 1.66,0.92 3.38,0.47 4.25,-1.1 l 2.04,-3.67 1.09,0.6 0.32,-0.58 v 0 z"
             id="path2" />
          <path
             class="cls-2"
             d="m 88.02,160.03 c 1.53,0.38 2.59,-0.11 2.9,-1.35 0.3,-1.21 -0.41,-2.16 -1.94,-2.59 1.18,0.29 2.2,-0.19 2.44,-1.15 0.28,-1.13 -0.41,-2.07 -1.78,-2.41 l -3.93,-0.98 -0.15,0.6 1.21,0.3 -1.56,6.25 -1.21,-0.3 -0.15,0.6 4.16,1.04 h 0.01 z m -0.84,-3.99 1.16,0.29 c 1.06,0.27 1.47,0.91 1.22,1.91 -0.23,0.92 -0.89,1.25 -1.96,0.98 l -1.14,-0.29 0.72,-2.9 v 0 z m 0.81,-3.24 1.14,0.29 c 0.79,0.2 1.1,0.75 0.89,1.56 -0.21,0.82 -0.85,1.22 -1.66,1.02 l -1.03,-0.26 0.65,-2.61 z"
             id="path3" />
          <polygon
             class="cls-2"
             points="101.15,158.79 101.76,158.81 101.84,156.5 101.23,156.5 101.2,157.3 99.07,157.22 99.17,154.45 101.89,154.55 101.86,155.41 102.46,155.43 102.53,153.57 101.91,153.55 101.9,153.88 96.69,153.7 96.67,154.31 97.91,154.36 97.69,160.8 96.44,160.75 96.42,161.37 102.36,161.57 102.42,160.03 101.8,160.01 101.77,160.89 98.95,160.79 99.05,157.89 101.18,157.96 "
             id="polygon3" />
          <path
             class="cls-2"
             d="m 115.78,159.44 -0.46,0.07 c -0.36,0.06 -0.7,-0.09 -1.05,-0.46 l -1.88,-1.99 c 1.05,-0.37 1.6,-1.28 1.42,-2.38 -0.21,-1.33 -1.17,-1.9 -2.76,-1.65 l -3.87,0.61 0.1,0.66 1.23,-0.19 1,6.31 -1.23,0.19 0.1,0.61 3.71,-0.59 -0.1,-0.61 -1.23,0.19 -0.43,-2.72 0.8,-0.13 2.17,2.36 c 0.51,0.56 0.65,0.6 1.37,0.49 l 1.2,-0.19 -0.1,-0.61 v 0 0.03 z m -6.01,-5.52 1.15,-0.18 c 0.85,-0.13 1.39,0.3 1.54,1.22 0.14,0.9 -0.27,1.59 -1.06,1.71 l -1.16,0.18 -0.47,-2.94 v 0 z"
             id="path4" />
          <polygon
             class="cls-2"
             points="121.74,149.86 118.24,151.2 118.48,151.82 119.64,151.38 121.93,157.35 120.77,157.79 120.99,158.37 126.49,156.26 125.89,154.69 125.34,154.9 125.7,155.85 123.09,156.85 120.82,150.93 121.98,150.48 "
             id="polygon4" />
          <polygon
             class="cls-2"
             points="127.08,148.07 128.15,147.43 131.44,152.91 130.37,153.55 130.69,154.08 133.91,152.14 133.59,151.62 132.52,152.26 129.23,146.78 130.3,146.14 129.96,145.57 126.74,147.5 "
             id="polygon5" />
          <polygon
             class="cls-2"
             points="142.56,142.41 135.45,141.63 133.88,143.09 134.34,143.58 135.19,142.79 135.73,142.87 139.79,147.23 138.88,148.08 139.3,148.53 141.74,146.26 141.32,145.81 140.4,146.67 137.06,143.09 144.43,143.93 144.8,143.59 139.93,138.37 140.84,137.52 140.38,137.03 137.94,139.31 138.39,139.79 139.32,138.93 "
             id="polygon6" />
          <path
             class="cls-2"
             d="m 148.11,133.04 c -0.53,-0.37 -1.28,-0.24 -1.65,0.29 -0.38,0.54 -0.24,1.28 0.29,1.65 0.54,0.38 1.27,0.25 1.65,-0.29 0.37,-0.52 0.25,-1.27 -0.29,-1.65 z"
             id="path6" />
          <polygon
             class="cls-2"
             points="46.52,124.7 46.03,123.57 48.62,122.42 50.46,126.56 47.87,127.72 47.36,126.58 46.8,126.83 48.33,130.26 48.89,130.01 48.38,128.87 54.27,126.25 54.78,127.39 55.34,127.14 53.81,123.71 53.25,123.96 53.75,125.1 51.07,126.29 49.23,122.15 51.91,120.95 52.41,122.08 52.97,121.83 51.45,118.4 50.88,118.65 51.39,119.78 45.5,122.41 45,121.27 44.44,121.52 45.96,124.95 "
             id="polygon7" />
          <path
             class="cls-2"
             d="m 41.32,106.31 0.52,3.3 0.66,-0.1 -0.19,-1.23 4.1,-0.65 c 1.33,-0.21 2.42,0.53 2.62,1.75 0.19,1.2 -0.6,2.15 -1.95,2.36 l -4.12,0.65 -0.2,-1.25 -0.66,0.1 0.59,3.72 0.66,-0.1 -0.2,-1.25 4.46,-0.71 c 1.54,-0.24 2.47,-1.7 2.19,-3.46 -0.3,-1.87 -1.71,-2.96 -3.49,-2.68 l -4.15,0.66 -0.19,-1.23 -0.66,0.1 v 0 0.02 z"
             id="path7" />
          <polygon
             class="cls-2"
             points="47.3,95.21 41.41,97.13 41.1,99.61 41.76,99.69 41.91,98.45 48.26,99.23 48.11,100.47 48.72,100.54 49.12,97.23 48.52,97.15 48.36,98.39 43.19,97.76 49.43,95.73 43.56,91.98 49.07,92.65 48.92,93.89 49.53,93.97 49.98,90.24 49.37,90.17 49.22,91.4 42.87,90.62 43.03,89.38 42.37,89.3 42.05,91.88 "
             id="polygon8" />
          <path
             class="cls-2"
             d="m 52.9,81.41 c 0.57,-1.47 0.21,-2.59 -0.98,-3.05 -1.16,-0.45 -2.19,0.14 -2.8,1.61 0.43,-1.13 0.08,-2.21 -0.85,-2.57 -1.08,-0.42 -2.1,0.15 -2.61,1.47 l -1.45,3.78 0.57,0.22 0.45,-1.16 6.02,2.31 -0.45,1.16 0.57,0.22 1.54,-4 H 52.9 Z m -4.05,0.36 0.43,-1.12 c 0.39,-1.02 1.09,-1.35 2.05,-0.98 0.88,0.34 1.13,1.04 0.74,2.06 l -0.42,1.1 -2.79,-1.07 h -0.01 z m -3.13,-1.19 0.42,-1.1 c 0.29,-0.76 0.88,-1 1.66,-0.7 0.79,0.3 1.11,1 0.81,1.77 l -0.38,0.99 -2.51,-0.97 v 0 z"
             id="path8" />
          <path
             class="cls-2"
             d="m 58.26,71.99 c 1.2,-1.71 0.7,-4.3 -1.09,-5.54 -1.75,-1.23 -4.34,-0.81 -5.54,0.9 -1.22,1.74 -0.74,4.3 1.02,5.54 1.8,1.26 4.38,0.84 5.6,-0.9 z M 52.2,67.76 c 0.8,-1.14 2.66,-1.22 4.18,-0.15 1.54,1.08 2.11,2.84 1.3,3.99 -0.8,1.14 -2.66,1.2 -4.2,0.12 C 51.97,70.66 51.4,68.9 52.2,67.76 Z"
             id="path9" />
          <polygon
             class="cls-2"
             points="60.82,57.02 58.12,59.63 58.58,60.1 59.48,59.24 63.92,63.84 63.03,64.7 63.45,65.14 67.69,61.05 66.53,59.84 66.1,60.26 66.8,60.99 64.79,62.92 60.39,58.36 61.28,57.5 "
             id="polygon9" />
          <path
             class="cls-2"
             d="m 70.47,58.83 3.34,-2.09 c 1.94,-1.21 2.54,-3.52 1.38,-5.38 -1.14,-1.82 -3.53,-2.32 -5.44,-1.12 l -3.34,2.09 0.33,0.52 1.06,-0.66 3.42,5.46 -1.06,0.66 0.33,0.52 z m 1.77,-1.89 -3.36,-5.38 1.11,-0.69 c 1.3,-0.81 3.04,-0.25 3.98,1.27 0.95,1.52 0.67,3.3 -0.64,4.12 l -1.1,0.69 v 0 z"
             id="path10" />
          <polygon
             class="cls-2"
             points="84.85,43.11 84.26,43.31 84.37,43.62 78.59,45.61 78.48,45.3 77.92,45.49 78.55,47.31 79.11,47.12 78.81,46.24 81.1,45.45 83.18,51.5 81.85,51.95 82.05,52.53 85.91,51.21 85.71,50.63 84.38,51.08 82.3,45.04 84.59,44.25 84.89,45.13 85.47,44.93 "
             id="polygon10" />
          <polygon
             class="cls-2"
             points="90.49,46.75 93.61,46.19 93.39,44.94 90.26,45.51 "
             id="polygon11" />
          <path
             class="cls-2"
             d="m 106.6,41.25 -3.34,-0.06 v 0.67 l 1.23,0.02 -0.07,4.15 c -0.02,1.35 -0.94,2.29 -2.18,2.27 -1.21,-0.02 -2.01,-0.97 -1.99,-2.33 l 0.07,-4.17 1.26,0.02 v -0.66 l -3.76,-0.07 v 0.66 l 1.25,0.02 -0.08,4.52 c -0.03,1.56 1.25,2.73 3.02,2.76 1.89,0.03 3.21,-1.17 3.24,-2.97 l 0.07,-4.2 1.24,0.02 v -0.66 h 0.04 z"
             id="path11" />
          <polygon
             class="cls-2"
             points="118.14,49.03 115.04,42.6 112.97,42.04 112.79,42.68 113.92,42.98 114.12,43.49 112.58,49.24 111.38,48.92 111.22,49.52 114.45,50.38 114.6,49.79 113.38,49.46 114.65,44.73 117.84,51.43 118.33,51.56 120.17,44.66 121.37,44.98 121.55,44.34 118.32,43.48 118.15,44.12 119.37,44.44 "
             id="polygon12" />
          <polygon
             class="cls-2"
             points="127.25,47.54 128.34,48.13 125.34,53.77 124.24,53.19 123.95,53.73 127.27,55.49 127.56,54.95 126.46,54.37 129.46,48.72 130.56,49.3 130.87,48.72 127.56,46.96 "
             id="polygon13" />
          <polygon
             class="cls-2"
             points="134.58,58 135.95,52.61 136.79,53.24 137.19,52.71 134.62,50.77 134.22,51.3 134.87,51.79 132.92,59.35 133.23,59.59 139.95,55.62 140.5,56.04 140.9,55.51 138.98,54.06 138.58,54.59 139.34,55.16 "
             id="polygon14" />
          <polygon
             class="cls-2"
             points="144.22,65.98 144.63,66.44 146.35,64.9 145.92,64.45 145.33,64.98 143.91,63.4 145.97,61.55 147.79,63.57 147.15,64.15 147.55,64.59 148.93,63.35 148.52,62.89 148.27,63.12 144.78,59.24 144.33,59.65 145.16,60.58 140.37,64.89 139.54,63.96 139.08,64.37 143.06,68.79 144.21,67.76 143.8,67.3 143.14,67.89 141.25,65.79 143.41,63.85 144.83,65.43 "
             id="polygon15" />
          <path
             class="cls-2"
             d="m 151.53,83.64 c -0.15,0.73 -0.14,1.35 0.06,1.96 0.43,1.31 1.65,2 2.83,1.61 1.03,-0.33 1.41,-0.88 1.72,-2.48 0.08,-0.39 0.18,-0.84 0.28,-1.33 0.14,-0.64 0.31,-0.89 0.72,-1.02 0.65,-0.21 1.22,0.15 1.46,0.89 0.14,0.43 0.15,0.74 0.02,1.46 l -0.79,0.26 0.19,0.58 1.89,-0.62 -0.19,-0.58 -0.39,0.13 c 0.1,-0.54 0.07,-1.03 -0.1,-1.56 -0.41,-1.26 -1.63,-1.97 -2.77,-1.6 -0.93,0.3 -1.33,0.96 -1.57,2.57 -0.24,1.53 -0.51,2.09 -1.11,2.28 -0.62,0.2 -1.24,-0.22 -1.5,-1.01 -0.18,-0.54 -0.18,-1.02 0,-1.78 l 0.82,-0.27 -0.19,-0.58 -1.97,0.64 0.19,0.58 0.41,-0.13 z"
             id="path15" />
          <polygon
             class="cls-2"
             points="160.43,91.37 160.61,92.6 154.27,93.49 154.1,92.26 153.49,92.35 154.01,96.06 154.62,95.98 154.45,94.74 160.78,93.85 160.95,95.09 161.61,94.99 161.09,91.28 "
             id="polygon16" />
          <polygon
             class="cls-2"
             points="162.09,107.54 162.11,106.93 161.78,106.92 161.99,100.81 162.32,100.82 162.35,100.23 160.42,100.16 160.4,100.76 161.33,100.79 161.25,103.21 154.85,102.99 154.9,101.58 154.29,101.56 154.15,105.64 154.76,105.66 154.81,104.25 161.2,104.47 161.12,106.89 160.19,106.86 160.17,107.48 "
             id="polygon17" />
          <path
             class="cls-2"
             d="m 152.35,118.08 0.17,-0.69 7.83,-1.2 0.1,-0.42 -6.32,-4.86 0.15,-0.61 -0.6,-0.15 -0.56,2.26 0.6,0.15 0.22,-0.9 1.57,1.19 -0.73,2.93 -1.94,0.29 0.18,-0.71 -0.6,-0.15 -0.67,2.71 0.59,0.16 z m 9.26,0.68 c 0.48,0.12 0.97,-0.18 1.08,-0.64 0.12,-0.48 -0.17,-0.97 -0.65,-1.09 -0.46,-0.11 -0.95,0.18 -1.07,0.66 -0.12,0.46 0.18,0.95 0.64,1.06 v 0 z m 0.71,-2.84 c 0.48,0.12 0.97,-0.18 1.08,-0.64 0.12,-0.47 -0.18,-0.97 -0.65,-1.08 -0.46,-0.12 -0.95,0.18 -1.07,0.66 -0.11,0.46 0.18,0.95 0.64,1.06 z m -6.24,-2.63 2.53,1.93 -3.13,0.47 z"
             id="path17" />
          <polygon
             class="cls-2"
             points="154.9,130.72 155.16,130.17 154.86,130.03 157.44,124.48 157.74,124.63 158,124.08 156.25,123.27 156,123.81 156.84,124.2 155.82,126.4 150.02,123.7 150.62,122.42 150.06,122.16 148.33,125.86 148.89,126.12 149.49,124.84 155.28,127.55 154.26,129.74 153.41,129.35 153.16,129.91 "
             id="polygon18" />
        </g>
        <path
           class="cls-2"
           d="m 150.13,79.12 -0.23,-0.4 c -0.18,-0.32 -0.16,-0.69 0.06,-1.14 l 1.21,-2.45 c 0.71,0.86 1.75,1.05 2.72,0.51 1.17,-0.66 1.37,-1.76 0.58,-3.16 l -1.92,-3.42 -0.58,0.32 0.61,1.09 -5.57,3.13 -0.61,-1.09 -0.54,0.3 1.84,3.27 0.53,-0.3 -0.61,-1.09 2.4,-1.35 0.4,0.71 -1.46,2.86 c -0.35,0.67 -0.34,0.82 0.02,1.46 l 0.6,1.06 0.54,-0.3 h 0.01 z m 3.08,-7.57 0.57,1.01 c 0.42,0.75 0.2,1.41 -0.61,1.87 -0.8,0.45 -1.58,0.3 -1.97,-0.4 l -0.58,-1.03 2.59,-1.46 v 0 z"
           id="path18" />
      </g>
      <g
         id="g27">
        <path
           class="cls-2"
           d="m 114.89,76.84 c -0.06,-0.03 -1.54,-0.66 -1.75,-0.71 -0.1,-0.02 -0.85,-0.54 -1.39,-0.92 -0.64,-0.45 -0.93,-0.64 -1,-0.66 -0.12,-0.03 -0.78,-0.35 -1.11,-0.51 l -1.65,-1.06 -1.65,-1.21 c 0,0 -0.32,-0.25 -0.68,-0.34 -0.01,0 -1,-0.36 -2.26,-0.24 -0.76,0.1 -2.75,0.35 -2.83,0.35 -0.09,0 -2.02,0.39 -2.15,0.47 -0.02,0.01 -1.58,0.99 -2.08,1.29 h -0.02 l -0.2,1.14 0.13,-0.13 c 0,0 1.36,-1.34 2.63,-1.73 0.03,0 2.75,-0.65 4.64,-0.55 0.02,0 1.94,0.04 3.34,1.08 l 1.25,1.04 1.82,0.95 c 0,0 1.37,1.1 4.38,2.32 0.02,0 1.63,0.62 2.54,1.52 l 0.08,0.08 0.02,-0.11 c 0.16,-0.88 -1.96,-2.02 -2.05,-2.07 v 0 z"
           id="path19" />
        <path
           class="cls-2"
           d="m 122.45,85.55 -0.3,-1.77 -0.2,-1.06 -0.35,-1.21 c -0.42,-1.53 -1.05,-2.56 -1.86,-3.62 -0.01,-0.03 -0.3,-0.68 -1.44,-1.66 -0.09,-0.08 -0.2,-0.18 -0.32,-0.29 -0.4,-0.38 -1.01,-0.95 -1.81,-1.41 -0.19,-0.12 -1.92,-1.16 -2.03,-1.2 -0.04,-0.01 -0.15,-0.05 -0.29,-0.1 -0.35,-0.13 -0.88,-0.32 -1.03,-0.35 -0.39,-0.1 -0.83,-0.16 -1.1,-0.19 l 0.2,-0.06 -0.54,0.03 v 0.02 c 0,0 -0.06,0.05 -0.06,0.1 0,0.09 0.11,0.22 0.87,0.42 0.18,0.05 1.8,0.65 1.8,0.65 0.02,0.01 1.95,1.18 2.27,1.39 0.02,0.01 1.56,1.17 2.57,2.7 0.01,0.02 1.32,1.69 2.05,4.69 l 0.93,2.6 1,1.79 -0.35,-1.46 h -0.01 z"
           id="path20" />
        <path
           class="cls-2"
           d="m 125.32,93.2 c -0.09,-0.71 -0.21,-1.59 -0.3,-2.11 -0.12,-0.76 -0.57,-2.15 -0.96,-2.8 -0.37,-0.63 -1.23,-1.24 -1.26,-1.27 l -0.17,-0.12 0.67,1.57 c 0,0 0.83,1.7 1.32,5.74 l -0.33,3.56 -0.38,1.3 c -0.13,1.23 -0.13,1.24 -0.06,1.25 h 0.05 c 0,0 0.84,-0.79 1.04,-1.68 0.01,-0.06 0.29,-1.46 0.33,-1.79 0,-0.02 0.26,-2.11 0.17,-2.76 -0.03,-0.2 -0.07,-0.52 -0.12,-0.88 v 0 z"
           id="path21" />
        <path
           class="cls-2"
           d="m 131.31,112.56 c -0.68,-0.55 -0.5,-1.15 -0.49,-1.19 l 0.22,-2.56 c 0.02,-1.27 -0.53,-2.34 -0.53,-2.34 -0.18,-0.61 -1.13,-1.05 -1.18,-1.07 -0.56,-0.12 -1.33,-0.13 -1.62,-0.13 h -0.12 c -1.5,0.09 -1.91,0.31 -2.11,0.42 -0.09,0.05 -0.11,0.05 -0.16,0.04 0,-0.02 0.03,-0.12 0.06,-0.2 0.09,-0.22 0.23,-0.59 0.15,-1.06 -0.32,-0.85 -0.3,-1.73 -0.3,-1.86 l 1.12,-1.58 c 1.56,-2.77 1.32,-6.17 1.31,-6.2 -0.4,-5.83 -1.52,-9.01 -1.53,-9.04 -1.6,-5.18 -4.06,-9.86 -4.09,-9.91 -3.16,-5.09 -10.01,-6.08 -10.07,-6.09 -3.34,-0.68 -9.14,-0.44 -9.2,-0.44 -2.98,0.23 -4.71,0.98 -4.72,0.99 -0.03,0.01 -2.68,1.05 -3.79,2.81 -0.02,0.04 -0.18,0.43 -0.26,0.73 -0.21,0.17 -1.1,0.74 -2.36,-0.09 -1.12,-0.5 -1.31,-2.69 -1.31,-2.73 0,0 -0.28,-0.8 -1.11,-0.82 -2.73,-0.41 -4.26,0.6 -4.28,0.62 -0.06,0.05 -1.44,1.12 -1.9,2.22 -0.26,0.03 -1.74,0.28 -3.31,2.66 l -1.35,1.62 -1.81,1.58 v 0.02 c -0.04,0.06 -0.76,1.45 -0.31,4.18 0.06,0.24 0.58,0.63 1.6,1.2 0.02,0.01 0.03,0.02 0.05,0.03 0.17,0.27 0.15,3.12 -0.25,3.8 -0.03,0.05 -0.53,1.3 -0.62,1.54 l -0.64,1.05 c -0.06,0.05 -0.38,0.4 -0.36,1.39 v 0.82 c 0,0 -0.1,1.18 -0.52,1.73 l -1.3,1.75 -1.17,1.72 c 0,0 -0.77,1.42 -0.99,1.72 -0.05,0.06 -0.11,0.14 -0.2,0.24 -0.32,0.37 -0.81,0.94 -0.89,1.6 0,0.04 -0.03,0.93 0.57,1.53 0.34,0.34 0.81,0.51 1.39,0.51 h 0.08 l 0.61,-0.02 c 0,0 0,0.03 0.02,0.04 0,0.1 0.02,0.34 0.03,0.5 l 0.06,0.52 -0.06,1.06 c 0,0 -0.23,0.88 0.02,1.29 0,0 0.26,0.26 0.24,0.5 l -0.14,0.51 -0.11,0.34 c -0.02,0.1 -0.19,0.95 0.19,1.12 l 0.48,0.25 c 0,0 0.6,0.54 0.33,1.07 l -0.46,0.81 c 0,0 -0.45,0.52 -0.54,1.16 0,0.02 -0.31,1.51 0.54,2.79 0.59,0.89 1.59,1.47 2.96,1.72 l 2.66,0.33 2.95,0.54 c 0,0 0.82,0.22 0.8,1.27 l -0.03,0.44 c 0,0 0.05,0.78 0.41,1.44 l 0.65,1.41 0.7,1.28 0.7,1.7 c 0,0 0.6,1.53 0.58,3.36 l -0.13,3.48 v 0.06 l 0.96,0.02 h 0.06 l 0.05,-4.84 c 0,0 -0.23,-1.89 -1,-3.3 l -0.59,-1.23 -0.88,-1.52 c 0,0 -0.63,-1.2 -0.75,-2.86 l 0.03,-0.95 c 0.27,-0.09 1.88,-0.63 3.43,-1.35 0.18,-0.08 2.69,-1.73 3.67,-2.46 1.99,-1.68 2.53,-2.13 2.65,-2.27 v 0 c 0.2,-0.16 1.63,-1.37 2.13,-2.16 h 0.43 c 0,0 0.03,-0.02 0.04,-0.02 0.1,0 0.18,0.03 0.26,0.1 0.39,0.34 0.45,1.39 0.45,1.41 l 1.93,8.5 -2.44,3.64 -2.61,6.1 -2.08,7.42 -0.02,0.07 h 1.38 v -0.06 c 0.08,-6.02 4.7,-14.29 4.75,-14.36 l 4.36,-6.04 4.92,-5.36 4.29,-4.48 c 0.14,-0.1 3.51,-2.37 3.9,-2.7 0.1,-0.06 0.2,-0.07 0.29,-0.03 0.25,0.11 0.37,0.57 0.38,0.59 0.41,0.79 0.57,1.57 0.58,1.58 0.41,1.29 0.28,1.72 0.17,1.85 -0.07,0.08 -0.16,0.08 -0.15,0.08 v 0 c -1.48,0.2 -2.16,1.3 -2.16,1.31 -0.84,1.33 -0.62,2.85 -0.51,3.35 -0.02,0.03 -0.03,0.06 -0.04,0.09 -0.08,0 -0.17,-0.01 -0.25,-0.01 -1.79,0 -2.34,1.39 -2.34,1.4 -1.24,2.35 -0.27,4.68 -0.26,4.69 0,0.02 0.31,1.54 0.24,2.64 0,0.18 -0.07,1.72 0.6,2.09 0.5,0.37 0.93,0.48 1.05,0.51 0.07,0.13 0.41,0.71 0.91,0.77 0.05,0 0.1,0.01 0.15,0.01 0.57,0 1.12,-0.42 1.63,-1.25 0.02,-0.04 0.04,-0.07 0.05,-0.07 0.06,-0.06 1.21,-1.11 1.22,-1.11 0,0 0.64,-0.41 1.51,-0.21 0.11,0.02 1.07,-0.05 1.26,-0.06 0.91,-0.05 1.39,-0.73 1.58,-1.08 0.07,0.69 0.41,2.75 2.01,3.29 -0.15,0.27 -0.14,0.68 -0.14,0.75 -0.38,1.64 0.82,2.46 0.83,2.47 2.56,1.56 5.18,0.08 5.2,0.07 1.55,-0.88 1.65,-3.07 1.65,-3.09 0.18,-1.75 -0.02,-2.79 -0.02,-2.8 v -0.02 c -1.39,-2.2 0.02,-3.75 0.03,-3.77 0.49,-0.44 0.83,-1.32 0.99,-2.6 v 0 c 0.19,-2.11 -0.86,-2.87 -0.91,-2.9 z m -1.43,9.2 c 0.6,0.98 0.3,3.11 0.3,3.13 -0.34,1.76 -1.85,2.32 -2.49,2.47 -1.26,0.32 -2.57,0 -3.18,-0.75 -0.34,-0.43 -0.44,-0.97 -0.31,-1.58 0.02,-0.04 0.04,-0.07 0.05,-0.13 0.17,-0.51 0.49,-1.48 2.66,-1.64 0.37,0 1.12,0.63 1.13,1.04 0,0.19 -0.17,0.29 -0.51,0.31 h -0.08 c -0.15,0 -0.28,-0.02 -0.29,-0.02 -0.24,0 -0.39,0.07 -0.46,0.18 -0.07,0.11 -0.02,0.24 -0.02,0.24 0,0.02 0.2,0.47 0.96,0.47 h 0.26 c 0.18,0 0.36,-0.02 0.42,-0.04 0.76,-0.22 0.69,-1.35 0.68,-1.39 -0.04,-0.75 -0.79,-1.19 -0.82,-1.21 l -0.85,-0.48 -0.54,-0.05 -0.93,0.12 c -1.09,0.23 -1.61,1.02 -1.81,1.44 -1.23,-0.99 -1.35,-1.81 -1.35,-1.83 l -0.49,-1.4 c 0.09,-0.16 0.21,-0.39 0.38,-0.7 l 0.44,0.15 c 0,0 1.12,0.26 2.24,0.26 0.15,0 0.3,0 0.44,-0.02 0.11,0 1.26,-0.11 1.3,-0.11 l 0.76,0.04 c 0,0 1.25,0.25 1.69,0.77 l 0.26,0.42 c 0.07,0.2 0.13,0.33 0.13,0.35 z m -17.39,-2.16 v -0.02 c 0,0 -0.02,-0.23 0.18,-0.44 0.21,-0.24 0.59,-0.37 1.11,-0.39 0.03,0 0.67,0.01 0.9,0.58 v 0.02 c 0,0 0.4,0.37 0.46,0.84 -0.21,0.02 -0.96,0.13 -1.59,0.57 -0.45,0.32 -0.75,0.76 -0.93,1.06 -0.16,-0.68 -0.2,-1.39 -0.22,-1.9 l 0.09,-0.3 z m 1.49,1.65 c 0.5,-0.3 1.11,-0.38 1.59,-0.18 l 0.83,0.71 c -0.02,0.31 -0.14,0.85 -0.79,1.23 l -0.02,0.02 c -0.49,0.64 -0.96,0.97 -1.35,0.97 h -0.04 c -0.36,-0.02 -0.54,-0.32 -0.55,-0.32 l -0.02,-0.02 c -0.2,-0.13 -0.36,-0.32 -0.5,-0.53 -0.02,-0.43 0.03,-1.37 0.84,-1.87 h 0.01 z m 2.92,-0.01 -0.64,-0.38 c 0,0 -0.15,-0.1 -0.2,-0.25 l -0.62,-1.4 v 0 c -0.03,-0.05 -0.81,-1.02 -1.38,-1.07 h -0.13 c -0.32,0 -0.49,0.02 -0.57,0.04 h -0.06 c -0.07,0 -0.6,0.19 -0.85,0.27 H 112 c -0.43,-1.05 -0.06,-2.12 0.15,-2.59 0.13,-0.14 0.29,-0.27 0.51,-0.33 0.32,-0.09 0.69,0.02 1.07,0.31 l 1.08,1.12 0.7,0.87 c 0.11,0.18 1.1,1.72 1.44,1.89 v 0 c 0,0 0.07,0.03 0.1,0.03 0.04,0 0.07,-0.02 0.09,-0.04 0.15,-0.17 -0.17,-0.89 -0.45,-1.32 -0.09,-0.14 -0.19,-0.31 -0.31,-0.52 -0.39,-0.66 -0.92,-1.56 -1.48,-2.11 -0.07,-0.07 -0.14,-0.14 -0.21,-0.2 -0.58,-0.58 -1.07,-1.03 -1.86,-1.19 0.59,-0.68 1.46,-0.85 1.9,-0.89 v 0 l 0.53,0.27 0.41,0.34 0.5,0.61 0.36,0.53 0.42,1.07 0.24,0.82 0.35,0.74 0.76,1.1 0.02,0.02 c 0.25,0.16 0.5,0.24 0.76,0.24 0.11,0 0.21,-0.02 0.32,-0.04 0.53,-0.14 0.93,-0.62 1.12,-1.01 0.84,-1.68 -1.74,-5.41 -1.95,-5.7 -0.17,-1.64 0.99,-3.27 1.31,-3.7 0.56,-0.01 1.05,-0.05 1.49,-0.1 v 0.24 l -0.15,1.14 c -0.05,0.18 -0.21,0.66 -0.37,0.79 -0.02,0.03 -0.57,0.82 -0.7,1.65 0,0.07 0,0.7 0.14,0.91 0.56,0.71 1.46,1.88 1.52,2.05 v 0.02 c 0.29,2.21 0.08,2.66 -0.49,3.84 -0.14,0.29 -0.3,0.64 -0.48,1.05 l -0.58,0.57 c -0.54,0.67 -1.85,0.68 -1.86,0.68 l -1.26,-0.1 c -0.07,-0.07 -0.16,-0.16 -0.25,-0.26 v 0 z m -1.84,-9.32 c 0.01,-0.75 0.48,-1.78 0.52,-1.87 0.75,-0.87 1.47,-1 1.47,-1 0.36,-0.02 0.62,-0.14 0.81,-0.34 0.36,0.02 0.68,0.03 1.01,0.03 -0.3,0.4 -2.18,2.99 -0.82,4.79 1.02,1.35 2.02,3.18 1.87,3.91 -0.03,0.13 -0.08,0.21 -0.18,0.26 h -0.02 c -0.34,0.39 -0.63,0.55 -0.87,0.49 -0.36,-0.09 -0.49,-0.64 -0.5,-0.66 l -0.54,-1.03 -0.34,-1.15 c -0.07,-0.3 -0.68,-1.1 -0.71,-1.14 l -0.33,-0.39 -0.3,-0.26 -0.43,-0.51 -0.35,-0.27 -0.24,-0.16 c 0,0 -0.05,-0.02 -0.08,-0.03 v -0.68 h 0.03 z M 74.7,107.73 c 0.12,-0.14 0.33,-0.28 0.58,-0.18 0.08,0.06 0.51,0.38 0.67,0.38 0,0 0.32,0 0.86,-0.04 0.18,0 0.26,-0.08 0.3,-0.15 0.08,-0.14 0.03,-0.33 -0.04,-0.44 -0.05,-0.08 -0.11,-0.12 -0.17,-0.12 v 0 c -0.18,0 -0.75,0.04 -0.75,0.04 h -0.02 l -0.02,0.02 c 0,0 -0.04,0.02 -0.1,0.02 -0.08,-0.01 -0.25,-0.09 -0.49,-0.46 -0.05,-0.09 -0.22,-0.22 -0.35,-0.25 -0.07,-0.02 -0.18,-0.03 -0.37,-0.05 l -0.18,-0.02 c -0.09,0 -0.16,-0.05 -0.2,-0.1 -0.08,-0.11 -0.04,-0.27 -0.04,-0.27 l 0.1,-0.54 c 0.01,-0.06 0.31,-1.3 0,-1.95 0.03,0.02 0.07,0.04 0.12,0.06 l 0.82,0.13 1.05,0.43 c 0,0 0.55,0.2 1.59,-0.46 l 0.03,-0.02 v -0.03 c -0.07,-0.88 -0.89,-2.07 -0.92,-2.12 l -0.05,-0.07 -0.25,0.36 v 0.03 c 0,0 0.23,0.55 0.3,0.73 0.17,0.47 0.22,0.69 0.18,0.78 -0.03,0.06 -0.1,0.08 -0.23,0.12 h -0.04 c -0.32,0.11 -0.92,0.21 -1.28,-0.3 l -0.02,-0.02 c 0,0 -0.65,-0.38 -1.55,-0.51 -0.01,0 -1.08,0.11 -1.37,0.12 -0.52,0.02 -0.86,-0.06 -1.04,-0.24 -0.19,-0.2 -0.17,-0.48 -0.15,-0.76 0,-0.11 0.01,-0.21 0,-0.3 0.09,-0.17 0.95,-1.66 1.6,-2.33 l 0.41,-0.53 1.17,-2 0.95,-1.21 c 0,0 1.09,-1.12 1.06,-2.01 l 0.07,-1.14 v 0 -0.02 c 0,0 -0.11,-0.61 0.25,-1.28 l 0.51,-0.98 0.53,-1.43 0.35,-1.41 0.17,-1.94 V 85 c 0.2,-0.33 0.68,-1.13 0.77,-1.71 0.11,-0.7 0.81,-1.34 1.42,-1.64 0.34,-0.16 0.65,-0.29 0.88,-0.38 0.2,-0.08 0.34,-0.14 0.39,-0.18 h 0.01 c 0,0 0.18,-0.24 0.11,-0.44 -0.05,-0.13 -0.18,-0.21 -0.39,-0.25 h -0.02 c -0.16,0 -0.85,0.35 -1.11,0.49 -0.49,0.26 -0.97,0.58 -1.32,0.88 -0.2,0.17 -0.38,0.46 -0.56,0.74 -0.12,0.2 -0.24,0.38 -0.36,0.53 l -0.03,0.03 c -0.18,0.21 -0.28,0.32 -0.52,0.41 -0.66,-0.29 -1.11,-0.67 -1.14,-0.98 0,-0.01 0,-1.1 -0.03,-1.46 -0.02,-0.37 0.02,-1.18 0.46,-1.88 0.15,0.11 0.35,0.19 0.65,0.21 h 0.21 c 0.94,0 2.23,-0.41 2.95,-1.16 0.55,-0.57 1.42,-0.65 1.96,-0.64 -0.06,0.07 -0.12,0.15 -0.15,0.2 -0.15,0.24 -0.55,1.49 -0.38,1.77 0.04,0.07 0.09,0.18 0.14,0.31 0.15,0.36 0.34,0.81 0.63,0.81 0.04,0 0.08,-0.02 0.11,-0.05 0.08,-0.1 0.04,-0.33 -0.03,-0.67 -0.09,-0.47 -0.21,-1.13 0.03,-1.54 0.72,-1.22 2.13,-2.32 3.15,-2.79 1.31,-0.59 2.28,-0.73 2.87,-0.42 0.49,0.26 1.02,0.85 1.44,1.33 0.2,0.23 0.39,0.44 0.55,0.59 0.29,0.27 0.8,0.38 1.2,0.43 -0.1,0.27 -0.21,0.59 -0.33,0.97 -0.34,-0.03 -0.89,-0.04 -1.46,0.05 -0.52,-0.5 -2.2,-1.98 -3.29,-1.49 -1.17,0.52 -2.06,1.24 -2.37,1.55 -0.2,0.2 -0.54,0.73 -0.49,0.95 0.01,0.05 0.04,0.09 0.09,0.11 h 0.05 c 0.26,0 0.83,-0.53 1,-0.7 0.01,-0.01 1.35,-1.14 2.17,-1.14 v 0 c 0.67,0 1.59,0.65 1.94,0.95 -0.12,0.05 -0.24,0.1 -0.35,0.17 -0.81,0.51 -1.16,0.9 -1.41,1.18 -0.07,0.08 -0.13,0.15 -0.19,0.21 l -0.05,0.05 c -0.6,0.62 -1.04,0.94 -1.31,0.94 v 0 c -0.3,0 -0.87,-0.28 -1.33,-0.5 -0.23,-0.11 -0.44,-0.21 -0.56,-0.25 -0.3,-0.1 -0.66,-0.04 -1.08,0.17 -0.22,0.11 -0.51,0.32 -0.61,0.57 -0.02,0.04 -0.01,0.07 0.01,0.1 0.08,0.1 0.36,0.1 0.98,0.04 0.15,-0.01 0.28,-0.02 0.35,-0.02 0.18,0 0.77,0.3 1.25,0.54 0.25,0.13 0.49,0.25 0.65,0.32 0.07,0.03 0.15,0.05 0.23,0.05 0.63,0 1.57,-0.76 1.68,-0.86 0.12,-0.1 0.25,-0.27 0.42,-0.5 0.38,-0.5 0.9,-1.18 1.73,-1.62 0.68,-0.35 1.29,-0.3 1.68,-0.19 -0.11,0.28 -0.24,0.61 -0.35,0.88 -0.03,0.12 -0.06,0.23 -0.09,0.35 -0.16,0.1 -0.36,0.24 -0.61,0.49 -1.08,1.04 -2.44,1.74 -3.16,2.07 -0.03,0.02 -0.05,0.02 -0.06,0.03 -0.6,0.38 -2.33,0.02 -2.96,-0.19 -0.06,-0.02 -0.1,0 -0.12,0.02 -0.02,0.02 -0.04,0.05 -0.02,0.12 0.07,0.23 0.58,0.75 1.44,0.9 0,0 0.31,0.05 0.76,0.05 0.71,0 1.8,-0.13 2.66,-0.8 l 1.68,-1.27 c -0.02,0.06 -0.04,0.13 -0.04,0.15 -0.1,0.18 -0.8,1.85 -0.88,2.05 -0.29,1.52 -0.77,2.29 -0.77,2.29 l -4.05,6.19 c -0.47,0.86 -0.51,1.72 -0.4,2.06 0.13,0.4 0.25,0.64 0.69,0.64 0.2,0 0.47,0.02 0.72,0.04 0.21,0.02 0.42,0.04 0.55,0.04 h 0.06 c 0.62,0 0.67,0.49 0.67,0.5 0,0.07 0.02,1.84 0.04,1.99 0.02,0.18 0.05,1.08 0.05,1.09 0,0 -0.04,0.62 0.73,0.93 0.06,0.11 0.02,0.28 -0.14,0.53 -0.06,0.12 -0.26,1.19 -0.22,1.31 0,0.02 0.01,0.04 0.02,0.06 0.02,0.1 0.06,0.24 0.3,0.35 0.78,0.34 0.79,0.88 0.79,0.9 v 0.02 c 0.11,0.24 -0.37,1.21 -0.69,1.77 -0.51,0.8 -0.28,3.11 -0.26,3.22 0.28,1.12 2.41,1.55 2.51,1.57 2.09,0.09 3.59,0.31 3.62,0.31 l 0.59,-0.02 c -0.06,0.06 -0.11,0.1 -0.17,0.16 l -3.8,3.2 c 0,0 -4.36,4.05 -7.87,4.05 h -0.2 c -0.07,0 -0.58,-0.04 -1.08,-0.08 -0.57,-0.05 -0.93,-0.07 -0.96,-0.07 0,0 -0.08,-0.02 -0.17,-0.03 -0.41,-0.08 -1.5,-0.31 -2.46,-0.34 -2.33,0 -3.77,-0.92 -3.94,-2.53 -0.19,-1.14 0.03,-1.7 0.05,-1.77 0.1,-0.11 1.1,-1.23 1.09,-1.72 0,-0.04 -0.23,-1.04 -0.57,-1.33 l -0.02,-0.02 h -0.03 c -0.28,0.08 -0.47,0 -0.58,-0.18 -0.21,-0.34 -0.1,-1.05 0.22,-1.42 z m 52.11,-11.29 c -0.2,3.42 -1.66,4.71 -2.1,5.02 -0.02,0.01 -0.03,0.03 -0.04,0.04 v 0.02 c -0.08,0.07 -0.17,0.14 -0.26,0.22 -0.31,0.29 -0.65,0.61 -1.22,0.88 -0.1,0.05 -0.2,0.1 -0.3,0.15 -0.09,0.04 -0.18,0.09 -0.29,0.14 -0.28,-0.12 -0.65,-0.31 -0.94,-0.6 0.23,-0.43 0.64,-1.35 0.37,-1.94 -0.24,-0.52 -0.45,-0.83 -0.61,-1.05 -0.07,-0.1 -0.14,-0.2 -0.19,-0.28 -0.05,-0.09 -0.09,-0.42 -0.12,-0.77 -0.07,-0.67 -0.16,-1.5 -0.44,-1.89 -0.57,-0.82 -1.67,-1.64 -2.21,-1.9 -0.28,-0.13 -0.74,-0.1 -1.11,-0.07 -0.24,0.02 -0.51,0.04 -0.57,-0.02 0,-0.87 -0.88,-3.33 -1.71,-4.14 -0.24,-0.24 -1.26,-0.41 -1.68,-0.28 -0.39,0.12 -1.45,0.2 -1.69,-0.16 -0.03,-0.04 -0.05,-0.08 -0.08,-0.12 -0.04,-0.06 -0.07,-0.12 -0.11,-0.19 -0.03,-0.06 -0.07,-0.13 -0.11,-0.19 0,-0.02 -0.03,-0.05 -0.03,-0.06 0,-0.1 -0.99,-3.03 -1.3,-3.93 -0.44,-0.85 -1.04,-1.02 -1.62,-1.19 -0.6,-0.17 -1.47,-0.52 -1.9,-0.83 -0.17,-0.12 -0.25,-0.58 -0.33,-1.06 -0.11,-0.68 -0.25,-1.46 -0.68,-1.88 -0.75,-0.73 -3.76,-1 -3.88,-1.01 -0.07,0 -0.28,-0.03 -0.48,-0.02 0.02,-0.11 0.03,-0.19 0.03,-0.19 l 0.11,-0.94 c 0.27,0.05 0.65,0.09 1.06,0.02 0.64,-0.11 1.81,-0.31 2.66,-0.25 0.62,0.05 1.01,0.48 1.52,1.02 0.14,0.15 0.28,0.3 0.44,0.46 0.32,0.32 0.61,0.88 0.92,1.47 0.42,0.81 0.9,1.73 1.58,2.34 0.94,0.85 2.29,1.42 3.1,1.76 0.2,0.09 0.37,0.15 0.47,0.21 0.28,0.14 0.32,0.34 0.42,0.77 0.06,0.27 0.14,0.63 0.3,1.11 0.47,1.35 1.2,1.98 1.85,2.41 0.38,0.25 1.26,0.56 2.12,0.86 0.83,0.29 1.7,0.59 1.97,0.81 0.29,0.23 0.37,0.68 0.46,1.16 0.07,0.4 0.14,0.81 0.34,1.13 0.28,0.44 0.98,1 1.61,1.5 0.36,0.28 0.69,0.55 0.9,0.76 0.3,0.3 0.45,0.77 0.57,1.11 0.08,0.26 0.13,0.4 0.22,0.43 h 0.02 c 0,0 0.05,0 0.08,-0.04 0.18,-0.18 0.08,-0.79 -0.13,-1.63 -0.07,-0.3 -0.55,-0.74 -1.1,-1.25 -0.09,-0.08 -0.18,-0.17 -0.28,-0.26 0.26,-0.29 0.61,-0.77 0.65,-1.39 0.06,-0.97 -0.31,-2.39 -0.82,-3.11 -0.51,-0.71 -1.12,-1.49 -2.08,-1.81 -0.22,-0.07 -0.39,-0.12 -0.52,-0.16 -0.45,-0.13 -0.53,-0.16 -0.9,-0.55 -0.47,-0.49 -0.97,-2.77 -1.13,-4.5 -0.11,-1.16 -0.63,-1.65 -1.37,-2.02 -0.42,-0.21 -1.24,-0.41 -2.11,-0.63 -0.71,-0.18 -1.45,-0.36 -2.01,-0.56 -0.83,-0.29 -2.42,-1.39 -3.58,-2.18 -0.59,-0.41 -1.11,-0.76 -1.4,-0.93 -0.91,-0.52 -4.66,-1.19 -5.47,-0.88 -0.42,0.16 -0.63,0.43 -0.73,0.66 -0.14,-0.25 -0.27,-0.33 -0.31,-0.35 -0.25,-0.2 -1.03,-0.46 -1.07,-0.47 -0.06,-0.02 -0.13,-0.03 -0.19,-0.05 0.22,-0.17 0.54,-0.4 0.86,-0.59 0.59,-0.34 1.79,-0.49 2.71,-0.49 1,0 1.42,-0.16 1.43,-0.17 l 0.12,-0.05 -0.11,-0.06 c 0,0 -0.35,-0.17 -1.02,-0.26 -0.43,-0.05 -1.34,0.03 -2.06,0.1 -0.41,0.04 -0.76,0.07 -0.94,0.07 -0.48,0 -1.87,1.07 -2.08,1.23 -0.42,-0.05 -0.8,-0.07 -1,-0.07 h -0.07 c -0.36,-0.03 -1.23,0.12 -1.27,0.13 -0.36,0.06 -0.76,0.22 -0.84,0.26 -0.18,-0.32 -0.29,-0.7 -0.25,-1.14 0.04,-0.45 0.19,-0.83 0.4,-0.99 h 0.01 c 0.37,-0.49 1.38,-1.19 1.39,-1.2 0.29,-0.22 3.15,-1.52 6.26,-1.62 2.76,-0.09 5.43,0.01 7.92,0.31 1.92,0.23 7.08,2.48 7.13,2.5 1.55,0.79 2.79,2.58 2.81,2.61 0.98,1.04 3.07,5.9 3.09,5.94 1.29,4.4 1.54,5.13 1.62,5.25 v 0 c 0.09,0.14 1.13,3.63 1.32,9.48 z m -1.99,8.66 c 0,0 0,0.06 -0.01,0.1 l -0.24,0.62 c -0.04,0.08 -0.07,0.16 -0.11,0.24 v 0.06 l -0.13,0.34 c -0.16,0.66 -3.35,1.36 -4.55,1.58 l -0.69,-0.03 h -0.59 l -0.33,-0.02 c 0,-0.2 -0.03,-0.35 -0.04,-0.37 L 118,107.04 c 0.05,-0.05 0.16,-0.07 0.2,-0.07 1.83,-0.03 3.41,-0.67 3.42,-0.68 0.05,-0.02 1.03,-0.43 1.41,-0.58 0.33,-0.13 0.69,-0.54 0.71,-0.76 0.01,-0.08 -0.02,-0.12 -0.05,-0.14 -0.07,-0.05 -0.19,-0.04 -0.36,0.04 -0.78,0.35 -3.45,1.25 -3.47,1.25 l -0.61,0.09 h -0.93 c -0.28,0 -0.48,-0.53 -0.6,-0.95 0.06,-0.08 0.3,-0.34 1.17,-0.34 0.12,0 0.25,0 0.4,0.02 h 0.02 c 0,0 2.79,-0.53 4.43,-1.7 0.14,-0.04 0.44,-0.09 0.67,-0.03 0.02,0.23 0.06,0.39 0.06,0.4 0.46,0.99 0.36,1.47 0.36,1.48 v 0.04 0 z m 4.86,13.59 v 0.02 c -0.11,0.45 -0.15,0.86 -0.16,1.22 -0.32,-0.31 -0.76,-0.57 -1.36,-0.6 -0.06,0 -0.61,-0.05 -0.9,-0.08 l -0.85,0.03 c -0.08,-0.5 -0.41,-2.13 -1.24,-2.95 -0.63,-0.63 -1.05,-0.94 -1.42,-1.21 -0.2,-0.15 -0.38,-0.28 -0.58,-0.45 -0.57,-0.5 -1.57,-1.28 -1.57,-1.28 -0.48,-0.6 -0.45,-1 0.14,-2.08 0.26,-0.25 0.41,-2.19 0.45,-2.76 0.39,-0.07 0.73,-0.15 1.01,-0.23 0,0.34 0.04,1.08 0.17,1.93 0.08,0.57 -0.11,1.23 -0.25,1.71 -0.09,0.34 -0.16,0.58 -0.13,0.71 0.1,0.33 1.29,1.42 1.78,1.66 0.1,0.05 0.23,0.11 0.39,0.19 0.64,0.31 1.71,0.84 2.14,1.14 0.31,0.21 0.81,0.75 1.26,1.22 0.33,0.35 0.61,0.65 0.77,0.77 0.19,0.15 0.4,0.46 0.56,0.72 -0.09,0.15 -0.17,0.28 -0.21,0.34 z m -7,-2.77 0.02,-0.21 0.11,0.04 1.19,0.92 1.01,1.03 c 0,0 0.49,0.49 0.51,0.96 l 0.02,0.67 h -0.24 l -1.36,-0.07 h -0.02 l -0.02,0.02 c 0,0 -0.11,0.09 -0.33,0.03 h -0.04 c -0.13,0 -0.7,-0.06 -0.94,-0.67 l 0.1,-1.09 0.09,-0.53 v 0 l -0.09,-1.09 h -0.01 z m -0.5,-23.19 c -0.07,0.32 -0.22,0.61 -0.33,0.8 -0.23,-0.25 -0.42,-0.49 -0.5,-0.69 -0.08,-0.2 -0.13,-0.39 -0.18,-0.6 -0.17,-0.64 -0.35,-1.3 -1.21,-1.95 -0.59,-0.45 -1.48,-0.7 -2.34,-0.95 -0.77,-0.22 -1.57,-0.45 -2.12,-0.82 -0.37,-0.24 -0.62,-1.13 -0.86,-2 -0.16,-0.57 -0.33,-1.16 -0.53,-1.58 -0.42,-0.86 -1.33,-1.06 -2.06,-1.22 -0.18,-0.04 -0.35,-0.08 -0.5,-0.12 -0.74,-0.22 -2.29,-1.42 -3.29,-3.73 -0.98,-2.26 -2.08,-2.5 -2.67,-2.63 h -0.05 c -0.41,-0.1 -1.83,0.02 -2.78,0.1 -0.41,0.03 -0.73,0.06 -0.84,0.06 -0.13,0 -0.3,-0.1 -0.45,-0.21 0.13,-0.49 0.42,-1.17 1.01,-1.17 1,0 2.67,0 4.46,1.05 0.44,0.26 0.94,0.57 1.48,0.91 1.66,1.04 3.73,2.33 5.21,2.72 l 0.14,0.04 c 1.82,0.47 2.57,0.66 2.81,1.54 0.08,0.29 0.13,0.72 0.2,1.22 0.13,1.06 0.3,2.38 0.82,3.16 0.36,0.55 1.05,1 1.78,1.49 0.77,0.51 1.57,1.05 1.95,1.69 0.76,1.27 0.98,2.36 0.86,2.89 z m -5.05,10.75 c -0.1,-0.25 -0.27,-0.65 -0.49,-0.97 -0.18,-0.33 -0.66,-0.79 -1.53,-1.45 -0.07,-0.05 -0.49,-0.21 -1,-0.38 0.02,-0.08 0.01,-0.16 -0.05,-0.25 L 114,100.35 c -0.11,-0.15 -0.16,-0.37 -0.15,-0.67 v -0.23 c 0.01,-0.51 0,-0.62 0,-0.74 v -0.24 c 0,-0.15 -0.05,-0.31 -0.11,-0.49 0.16,-0.04 0.35,-0.08 0.55,-0.13 0.54,-0.12 1.21,-0.62 1.68,-1.27 0.15,-0.21 0.35,-0.82 0.51,-1.35 0.35,-0.1 0.79,-0.22 1.11,-0.12 0.54,0.16 1.67,0.78 1.91,1.16 0.14,0.23 0.26,0.69 0.37,1.13 0.03,0.13 0.07,0.26 0.1,0.38 l -2.02,0.16 -1.26,0.29 -1.43,0.6 0.36,0.41 0.02,0.02 h 0.03 c 0.14,-0.02 1.35,-0.16 1.46,-0.2 1.99,-0.56 3.25,-0.17 3.26,-0.16 h 0.02 c 0,0 0.08,0.05 0.12,0.07 0.05,0.08 0.09,0.15 0.14,0.23 0.25,0.4 0.51,0.81 0.54,0.96 0.03,0.23 -0.19,0.92 -0.57,1.51 -0.23,0.11 -0.66,0.29 -1.07,0.3 l -0.82,-0.08 -0.55,-0.12 c -0.1,-0.05 -0.35,-0.15 -0.41,-0.15 -0.05,0 -0.3,-0.13 -0.51,-0.24 -0.49,-0.39 -0.55,-0.4 -0.57,-0.4 -0.05,0 -0.4,-0.12 -0.72,-0.24 l -0.69,-0.05 0.41,0.49 0.44,0.24 0.36,0.09 0.62,0.53 0.57,0.38 0.35,0.16 0.48,0.16 0.88,0.09 1.06,-0.05 c 0.38,0.09 0.79,0.24 0.8,0.33 l 0.11,0.3 c -0.06,0.02 -0.1,0.04 -0.17,0.06 -0.01,0 -1.1,0.67 -3.07,0.67 h -0.42 l -0.59,-0.64 v 0 z m -4.95,-3.46 c -0.59,-0.34 -0.96,-0.66 -1.15,-0.84 -0.04,-0.03 -0.07,-0.06 -0.09,-0.08 -0.97,-0.81 -1.49,-0.95 -1.52,-0.96 -0.05,0 -0.11,-0.01 -0.16,-0.01 h -0.04 c -0.27,-0.31 -0.66,-0.82 -0.6,-1.08 0.09,-0.4 0.26,-0.66 0.51,-0.78 0.17,-0.08 0.87,-0.1 1.37,-0.1 0.01,0 0.02,0.01 0.04,0.02 0.35,0.22 1.22,0.73 1.23,0.73 0.49,0.26 0.82,0.68 0.97,1.24 0.18,0.65 -0.11,1.73 -0.19,1.97 -0.18,-0.06 -0.32,-0.11 -0.37,-0.12 v 0 z m -2.1,-11.44 c -0.51,0.07 -1.22,0.15 -1.48,-0.06 -0.22,-0.19 -0.46,-0.52 -0.68,-0.85 -0.19,-0.27 -0.36,-0.53 -0.53,-0.7 -0.29,-0.29 -0.69,-0.52 -1.1,-0.71 -0.15,-0.27 -0.59,-1.07 -0.86,-1.31 -0.7,-0.64 -1.18,-1 -1.61,-1.32 -0.19,-0.14 -0.37,-0.28 -0.55,-0.42 -1.11,-0.89 -2.34,-1.37 -2.78,-1.53 0.25,-0.67 0.41,-1.22 0.52,-1.65 0.32,0.06 0.67,0.09 1.05,0.11 1.04,0.06 2.23,0.13 3.17,0.87 0.09,0.07 0.17,0.61 0.24,1.08 0.11,0.73 0.22,1.49 0.47,1.65 0.3,0.19 0.7,0.34 1.12,0.51 0.81,0.32 1.74,0.69 2.3,1.39 0.72,0.9 0.74,2.42 0.72,2.95 v 0 z m 5.72,5.71 c -0.11,0.48 -0.32,1.28 -0.53,1.65 -0.31,0.56 -0.68,0.8 -1.1,1.04 -0.24,0.14 -0.56,0.13 -0.79,0.1 -0.14,-0.25 -0.4,-0.4 -0.71,-0.54 -0.19,-0.09 -0.39,-0.18 -0.54,-0.31 -0.22,-0.17 -0.56,-0.41 -0.85,-0.6 0.38,-0.29 0.7,-0.91 0.79,-1.33 0.15,-0.66 0.17,-1.12 0.15,-1.74 v -0.11 c -0.02,-0.53 -0.04,-0.94 -0.13,-1.17 0.35,-0.3 0.94,-0.75 1.91,-0.56 0.81,0.16 1.51,1.89 1.77,2.79 0.04,0.15 0.03,0.47 0.02,0.78 v 0 z M 102.74,83.66 c 0.72,0.55 1.51,1.35 1.81,1.65 l 0.09,0.1 c 0.11,0.1 0.17,0.24 0.23,0.38 -0.57,-0.14 -1.16,-0.25 -1.51,-0.25 -0.43,0 -1.15,0.21 -1.62,0.59 -0.06,0.05 -0.1,0.09 -0.15,0.14 -0.37,-0.95 -1.25,-1.91 -1.29,-1.95 -0.59,-0.59 -0.54,-0.92 -0.54,-0.92 0.12,-0.25 0.22,-0.48 0.32,-0.71 0.64,0.09 1.8,0.32 2.67,0.98 v 0 z m -1.11,4.98 c 0.11,-0.47 0.11,-1.04 0.08,-1.5 0.26,-0.3 0.63,-0.66 0.99,-0.75 0.7,-0.18 1.54,-0.03 2.11,0.12 0.58,0.16 1.56,0.42 2.07,1.05 0.14,0.17 0.27,0.37 0.39,0.56 0.25,0.39 0.5,0.79 0.89,1 0.26,0.14 0.96,0.29 1.42,0.39 0.13,0.03 0.25,0.05 0.33,0.07 0.43,0.1 0.7,0.28 0.9,0.49 v 0.04 c 0.12,0.35 0.52,1.6 0.52,2.78 0,0.19 -0.11,0.94 -0.43,1.55 -0.04,0.07 -0.06,0.14 -0.09,0.2 -0.06,0.16 -0.11,0.26 -0.23,0.26 -0.04,0 -0.09,-0.01 -0.15,-0.03 -0.16,-0.06 -0.27,-0.11 -0.37,-0.15 -0.16,-0.07 -0.29,-0.13 -0.53,-0.2 -0.39,-0.11 -0.91,-0.11 -0.93,-0.11 0,0 -0.95,0.19 -1.29,-0.27 -0.16,-0.22 -0.24,-0.48 -0.31,-0.72 -0.09,-0.3 -0.17,-0.56 -0.4,-0.63 -0.1,-0.03 -0.17,-0.07 -0.25,-0.11 0.03,-0.04 0.06,-0.08 0.08,-0.12 0.33,-0.48 0.42,-0.68 0.48,-1.08 0.06,-0.4 -0.01,-1.15 -0.12,-1.49 -0.2,-0.65 -0.59,-1.28 -0.71,-1.46 -0.2,-0.31 -1.49,-0.83 -1.8,-0.83 h -0.02 c -0.08,0 -0.1,0.06 -0.11,0.08 -0.04,0.21 0.78,0.7 0.88,0.76 0.47,0.27 0.92,1.1 1.06,1.56 0.12,0.41 -0.24,1.51 -0.3,1.7 -0.17,0.06 -1.12,0.37 -1.6,0.19 -0.3,-0.11 -0.55,-0.25 -0.82,-0.39 -0.21,-0.12 -0.44,-0.24 -0.7,-0.35 -0.41,-0.18 -1.13,-0.96 -1.5,-1.37 0.13,-0.62 0.45,-1.24 0.46,-1.25 v 0 z m 0.65,3.08 c 0.35,0.11 0.52,0.35 0.68,0.55 0.04,0.05 0.07,0.08 0.1,0.12 0.07,0.72 0.2,1.89 0.32,2.36 0.07,0.28 0.17,0.52 0.26,0.73 0.13,0.31 0.24,0.58 0.2,0.86 -0.05,0.31 -0.03,0.82 -0.01,1.18 -1.16,0.04 -1.35,-0.09 -1.36,-0.1 -0.19,-0.24 -0.57,-2.96 -0.79,-4.74 l -0.33,-1.38 c 0.27,0.14 0.61,0.3 0.94,0.4 v 0.02 z m 2.07,4.24 -0.06,-0.24 c -0.16,-0.59 -0.36,-1.32 -0.35,-1.76 0,-0.37 -0.04,-0.93 -0.07,-1.24 0.19,0.09 0.41,0.21 0.61,0.33 0.22,0.13 0.43,0.25 0.61,0.33 0.09,0.04 0.17,0.05 0.26,0.05 0.04,0 0.07,-0.02 0.11,-0.03 -0.06,0.17 -0.11,0.34 -0.15,0.43 -0.13,0.28 -0.14,0.83 -0.14,1.22 0,0.39 0.1,1.12 0.22,1.41 0.07,0.16 0.17,0.59 0.25,0.93 -0.4,0.04 -0.75,0.07 -1.06,0.1 -0.03,-0.38 -0.1,-1.08 -0.22,-1.53 z m 2.84,2.66 V 98.6 c -0.22,-0.31 -0.31,-0.7 -0.32,-0.77 0.02,-0.11 -0.01,-0.2 -0.08,-0.28 0,0 -0.02,-0.01 -0.03,-0.02 l -0.06,-0.05 c 0,0 -0.62,-0.5 -0.62,-1.13 0,-0.28 -0.08,-0.64 -0.14,-0.99 -0.1,-0.49 -0.19,-0.99 -0.08,-1.14 0.11,-0.15 0.34,-0.3 0.53,-0.41 0.19,0.18 0.36,0.36 0.45,0.5 0.05,0.06 0.09,0.13 0.13,0.19 0.27,0.39 0.53,0.77 1.13,0.81 h 0.11 c 0.49,0.04 0.75,0.07 1.24,0.24 -0.32,0.02 -0.67,0.07 -0.83,0.23 -0.26,0.27 -0.62,0.69 -0.69,1.18 -0.05,0.32 0.03,0.7 0.12,1.14 l 0.02,0.08 c 0.02,0.12 0.09,0.25 0.15,0.36 -0.23,0.16 -0.44,0.35 -0.61,0.52 -0.34,-0.17 -0.41,-0.41 -0.41,-0.42 v -0.02 z m 22.76,13.34 c 0,0 -0.06,0.03 -0.1,0.03 h -0.08 c -2.4,0.47 -3.19,0.17 -3.43,-0.16 -0.17,-0.24 -0.07,-0.55 -0.02,-0.67 0.06,0 0.17,-0.09 0.69,-1.8 0.19,-0.53 -0.32,-1.2 -0.39,-1.28 -0.08,-0.2 -0.91,-1.13 -1.17,-1.42 0.03,-0.04 0.06,-0.09 0.08,-0.11 h 0.03 c 0.26,-0.04 1.08,-0.22 1.11,-0.23 1.71,-0.21 3.17,-0.2 3.6,2.13 -0.04,0.17 -0.47,1.92 -0.34,3.53 z M 93.97,75.13 93.14,76.41 c 0,0 -0.09,0.16 -0.2,0.38 -0.12,0.02 -0.29,0.03 -0.51,-0.06 -0.28,-0.11 -1.06,-0.89 -1.69,-1.53 l -0.21,-0.21 c 0.11,-0.06 0.26,-0.13 0.47,-0.18 0.07,-0.02 0.13,-0.02 0.19,-0.03 0.45,0.29 1.08,0.48 1.99,0.29 0.03,0 0.56,-0.05 0.9,-0.1 -0.06,0.08 -0.12,0.15 -0.12,0.15 h 0.01 z m -3.48,-1.04 c -0.23,0.06 -0.43,0.2 -0.57,0.32 -0.04,-0.04 -0.11,-0.1 -0.14,-0.12 -0.85,-0.58 -1.9,-0.36 -2.45,-0.18 -0.18,0.06 -0.48,0.23 -0.82,0.45 -0.13,0 -0.28,-0.05 -0.41,-0.18 L 85.97,74.25 C 85.56,73.84 85.15,73.43 85.04,73.37 84.68,73.14 84.24,73 83.96,72.91 l 0.14,-0.16 0.29,-0.41 c 0,0 0.46,-0.68 0.93,-1.01 l 0.09,-0.05 c 0.31,-0.15 0.67,-0.33 1.01,-0.33 h 0.02 l 1.82,0.14 c 0,0 1.21,0 1.44,0.96 l 0.62,1.68 c 0,0 0.06,0.16 0.19,0.35 h -0.02 z m -7.04,-0.43 c 0.38,0.04 0.84,0.17 1.29,0.5 0.28,0.21 0.74,0.68 0.99,0.94 -0.65,0.47 -1.29,0.98 -1.51,1.2 -0.14,0.14 -0.32,0.32 -0.49,0.51 -1.79,-0.3 -2.82,0.55 -3.1,0.83 -0.95,0.96 -2,0.97 -2.61,0.73 0.33,-0.27 0.78,-0.63 1.04,-0.84 0.47,-0.37 0.94,-1.02 1.38,-1.66 0.47,-0.67 2.15,-1.84 2.15,-1.84 0,0 0.86,-0.37 0.86,-0.37 z m 9.06,35.25 h -0.25 c -1.47,0 -2.45,-0.37 -2.93,-1.09 -0.74,-1.12 0,-2.74 0,-2.76 l 0.46,-1.12 c 0.07,-0.2 0.17,-0.18 0.36,-0.15 0.06,0.01 0.13,0.02 0.2,0.03 h 0.06 c 0.2,0 0.32,-0.05 0.36,-0.15 0.1,-0.22 -0.21,-0.56 -0.25,-0.59 -0.19,-0.2 -0.39,-0.54 -0.38,-0.89 0,-0.23 0.11,-0.45 0.31,-0.63 l 0.02,-0.02 v -0.02 c 0,0 0,-0.09 -0.04,-0.12 -0.09,-0.08 -0.3,-0.05 -0.33,-0.05 h -0.02 c -0.61,0.41 -0.88,0.09 -0.89,0.08 -0.11,-0.17 -0.15,-0.34 -0.12,-0.49 0.05,-0.25 0.28,-0.39 0.28,-0.39 h 0.01 c 0,0 0.33,-0.34 1.49,-0.03 0.29,0.08 0.98,0 1.01,0 0.55,-0.1 0.54,-0.54 0.54,-0.55 v -0.03 l -0.02,-0.02 c -0.29,-0.21 -0.42,-0.32 -0.5,-0.39 -0.1,-0.09 -0.14,-0.12 -0.32,-0.2 -0.09,-0.03 -0.15,0.04 -0.22,0.13 -0.15,0.2 -0.41,0.52 -1.14,0.01 -0.54,-0.51 -0.66,-0.5 -0.76,-0.49 -0.13,0 -0.23,0 -0.31,0.01 -0.32,0.02 -0.36,0.03 -0.49,-0.45 l -0.05,-2.44 0.02,-0.66 1.02,0.13 c 0.52,0.18 0.85,0.17 0.99,0.16 v 0 c 0.06,0.02 0.39,-0.07 0.6,-0.28 0.19,-0.19 0.37,-0.53 0.14,-1.09 l -0.05,-0.13 -0.05,0.13 c -0.26,0.64 -1.53,0.5 -1.68,0.48 -1.06,-0.76 -2.49,-0.41 -2.54,-0.39 -0.54,0.08 -0.89,0 -1.05,-0.22 -0.26,-0.37 0.09,-1.03 0.09,-1.03 l 1.78,-2.82 c 0,0 1.95,-2.73 2.98,-4.48 v -0.02 c 0.22,-1.77 0.53,-2.53 0.57,-2.61 0.73,-0.81 0.96,-1.53 1,-1.66 1.03,-3.4 1.21,-4.11 1.21,-4.12 0.13,-0.54 0.81,-1.66 1.59,-1.81 0.07,0 0.16,-0.02 0.28,-0.04 0.5,-0.07 1.35,-0.18 1.62,-0.13 0.07,0.01 0.16,0.02 0.26,0.03 0.5,0.06 1.33,0.15 2.54,0.67 1.16,0.35 0.39,3.28 0.39,3.3 l -1.72,3.73 c -0.17,0.33 0.47,0.9 0.53,0.95 0.1,0.14 0.96,1.21 1.01,1.26 0,0 0.82,0.75 0.7,2.14 0.1,0.89 -0.11,1.24 -0.32,1.62 -0.09,0.16 -0.19,0.33 -0.27,0.54 v 0.02 c -0.05,0.78 0.33,2.25 0.35,2.32 0,0.01 0.01,0.04 0.02,0.05 -0.38,0.29 -1.04,0.73 -2.12,1.15 -0.23,0.09 -0.5,0.19 -0.77,0.29 -1.43,0.53 -1.88,0.72 -1.88,0.87 0,0.02 0,0.06 0.05,0.09 0.1,0.08 0.35,0.1 0.61,0.1 0.28,0 0.58,-0.03 0.74,-0.06 0.38,-0.08 1.45,-0.43 1.82,-0.58 0.27,-0.1 1.28,-0.54 1.81,-0.77 0.08,0.37 0.16,0.77 0.23,1.12 -0.19,0.11 -0.41,0.23 -0.61,0.32 -0.34,0.15 -0.83,0.41 -1.2,0.59 -0.17,0.09 -0.31,0.16 -0.4,0.2 -0.18,0.09 -0.87,0.51 -0.89,0.64 0,0.03 0,0.06 0.03,0.09 0.09,0.1 0.37,0.22 0.54,0.22 h 0.03 c 0.12,-0.01 0.58,-0.2 1.22,-0.47 0.2,-0.08 0.38,-0.16 0.52,-0.22 0.31,-0.12 0.68,-0.3 0.93,-0.42 0,0.02 0.01,0.06 0.01,0.06 0.16,2.29 0.27,2.73 0.34,2.81 0.19,0.22 1.5,0.19 4.01,0.04 1.1,0.52 1.27,1.35 1.35,1.71 l -0.24,0.67 c -0.37,0.93 -1.85,5 -1.86,5.03 -0.05,0.09 -0.09,0.2 -0.14,0.31 -0.23,0.54 -0.51,1.2 -1.7,1.43 -1.23,0.47 -1.97,0.67 -3.42,0.93 -2.41,0.55 -4.14,0.55 -4.16,0.55 l -2.97,0.06 h 0.03 z m 5.57,0.89 c -0.03,-0.07 -0.04,-0.09 -0.04,-0.16 0,-0.13 0.59,-0.27 1.14,-0.32 5.23,-0.9 5.98,-2.29 6.26,-2.82 0.03,-0.05 0.05,-0.1 0.08,-0.14 0.9,-1.58 2.47,-6.17 2.56,-6.42 0.07,-0.07 0.56,-0.64 0.96,-0.75 0.54,-0.16 1.05,0.4 1.05,0.4 h 0.02 c 0.25,0.16 1.3,0.98 1.31,0.99 0.4,0.29 1.29,0.5 1.33,0.51 0.26,0.06 1.06,0.36 1.54,0.54 0.2,0.08 0.34,0.13 0.39,0.15 0.14,0.04 0.79,0.47 0.83,0.59 0.02,0.05 0.06,0.1 0.12,0.15 0.04,0.13 0.08,0.29 0.07,0.44 l -0.33,0.27 -4.37,3.19 c -3.47,2.69 -8.05,8.52 -8.1,8.58 l -2.57,3.22 -0.33,0.49 -0.34,-1.78 -1.08,-4.97 c -0.29,-1.62 -0.44,-2 -0.51,-2.16 z m 32.4,7.51 c -0.25,-0.21 -0.62,-0.53 -1.04,-0.98 -0.89,-0.94 -1.79,-1.62 -2.82,-2.13 -0.11,-0.05 -0.21,-0.11 -0.32,-0.16 -0.96,-0.47 -1.94,-0.95 -2.23,-1.68 -0.15,-0.37 -0.03,-0.61 0.11,-0.92 0.17,-0.36 0.36,-0.77 0.18,-1.48 -0.21,-0.82 -0.39,-1.5 -0.49,-1.9 0.45,-0.2 0.65,-0.36 0.66,-0.38 0.13,-0.08 0.27,-0.22 0.41,-0.36 0.13,0.21 0.29,0.46 0.35,0.58 v 0.02 c 0,0 0.78,0.71 0.91,1.22 -0.08,0.24 -0.83,2.12 -0.84,2.14 -0.18,0.73 -0.16,1.22 0.08,1.47 0.16,0.17 0.44,0.23 0.78,0.15 l 4.41,0.26 c 0.76,1.22 0.78,2.24 0.74,2.67 v 0.04 c 0,0.05 0,0.23 -0.64,1.03 0,0.02 -0.12,0.19 -0.25,0.41 z"
           id="path22" />
        <path
           class="cls-2"
           d="m 79.2,94.98 c 0.04,-0.31 0.02,-0.71 0.01,-0.97 v -0.22 c 0,-0.09 0.05,-0.2 0.12,-0.23 0.07,-0.04 0.19,-0.05 0.37,-0.04 h 0.12 c 0.15,0.02 0.32,0.03 0.49,0.05 0.2,0.03 0.62,0.1 0.74,0.13 0.05,0.02 0.13,0.06 0.2,0.1 0.09,0.05 0.19,0.11 0.3,0.15 0.05,0.02 0.12,0.04 0.2,0.07 0.24,0.08 0.6,0.21 0.72,0.29 0.15,0.11 0.54,0.56 0.61,0.65 0.07,0.11 0.23,0.31 0.3,0.38 0.08,0.08 0.25,0.19 0.43,0.24 0.18,0.05 0.42,0 0.43,0 l 0.09,-0.02 -0.06,-0.07 c -0.05,-0.06 -0.41,-0.62 -0.69,-1.06 -0.29,-0.45 -0.47,-0.73 -0.5,-0.77 -0.07,-0.08 -0.2,-0.15 -0.41,-0.21 -0.08,-0.02 -0.21,-0.06 -0.34,-0.1 -0.1,-0.03 -0.2,-0.07 -0.28,-0.09 -0.09,-0.03 -0.24,-0.1 -0.41,-0.18 -0.14,-0.06 -0.28,-0.13 -0.4,-0.18 -0.06,-0.02 -0.13,-0.06 -0.22,-0.09 -0.28,-0.12 -0.65,-0.29 -0.95,-0.32 -0.37,-0.04 -1.66,0.05 -1.8,0.11 -0.13,0.06 -0.21,0.19 -0.2,0.31 0,0.07 0.05,0.2 0.13,0.42 0.03,0.07 0.05,0.14 0.07,0.2 0,0 0.08,0.24 0.11,0.43 0.02,0.2 0.03,0.79 0,1.11 -0.03,0.29 -0.08,0.42 -0.15,0.58 l -0.02,0.05 c -0.04,0.1 -0.18,0.29 -0.29,0.44 -0.17,0.23 -0.18,0.26 -0.17,0.3 l 0.02,0.03 h 0.08 c 0.2,0 0.8,-0.06 0.91,-0.16 0.11,-0.11 0.37,-0.92 0.42,-1.35 z"
           id="path23" />
        <path
           class="cls-2"
           d="m 82.53,95.76 -0.1,-0.1 c -0.13,-0.13 -0.24,-0.22 -0.29,-0.25 -0.03,-0.02 -0.1,-0.08 -0.16,-0.13 -0.06,-0.05 -0.11,-0.1 -0.15,-0.12 -0.05,-0.04 -0.14,-0.1 -0.2,-0.14 l -0.07,-0.05 c 0,0 -0.31,-0.21 -0.38,-0.23 h -0.02 c -0.06,-0.03 -0.24,-0.1 -0.28,-0.12 -0.01,0 -0.04,-0.03 -0.07,-0.06 -0.05,-0.04 -0.1,-0.09 -0.15,-0.12 -0.07,-0.04 -0.55,-0.14 -0.65,-0.15 v 0 c -0.12,0 -0.34,0.16 -0.39,0.22 -0.03,0.05 -0.02,0.13 0,0.19 0.01,0.04 0.05,0.17 0.13,0.21 0.04,0.02 0.14,0.06 0.24,0.1 -0.04,0.14 -0.1,0.34 -0.11,0.49 -0.02,0.21 -0.03,0.45 0,0.59 0.03,0.14 0.19,0.39 0.29,0.5 0.1,0.11 0.31,0.17 0.32,0.17 h 0.03 c 0,0 0.09,0 0.14,-0.05 0.06,-0.06 0.07,-0.15 0.05,-0.28 -0.05,-0.26 -0.05,-0.35 -0.06,-0.51 v -0.09 c -0.01,-0.13 0.09,-0.31 0.17,-0.46 0.05,0.02 0.12,0.05 0.15,0.07 0.14,0.09 0.5,0.37 0.6,0.47 0.03,0.03 0.08,0.06 0.12,0.09 0.14,0.08 0.22,0.14 0.18,0.29 -0.06,0.25 -0.22,0.36 -0.37,0.43 -0.15,0.07 -0.37,0.16 -0.51,0.2 -0.15,0.05 -0.52,0.1 -0.63,0.11 -0.15,0.02 -0.41,0.04 -0.41,0.04 h -0.02 c 0,0 -0.18,0.08 -0.19,0.18 -0.01,0.11 0.12,0.17 0.13,0.17 h 0.5 c 0,0 0.17,-0.01 0.3,-0.01 h 0.5 c 0.14,-0.02 0.4,-0.1 0.53,-0.16 0.16,-0.06 0.83,-0.44 0.9,-0.49 0.07,-0.06 0.15,-0.17 0.18,-0.24 0.04,-0.08 0.02,-0.24 -0.02,-0.34 -0.04,-0.11 -0.2,-0.36 -0.29,-0.44 z"
           id="path24" />
        <path
           class="cls-2"
           d="m 92.69,85.44 h 0.04 c 0.26,0 1.22,0.23 1.65,0.36 0.41,0.12 0.58,0.19 0.7,0.27 0.11,0.08 0.59,0.51 0.89,0.81 0.12,0.12 0.23,0.18 0.33,0.23 0.13,0.07 0.22,0.12 0.24,0.29 0,0.04 0.03,0.1 0.16,0.14 0.05,0.01 0.1,0.02 0.15,0.02 0.16,0 0.34,-0.05 0.42,-0.15 0.06,-0.07 0.07,-0.15 0.02,-0.24 C 97.22,87.02 97.2,86.99 97.15,86.97 97.13,86.96 97.08,86.93 96.92,86.71 96.75,86.48 96.56,86.32 96.34,86.13 96.26,86.07 96.18,86 96.1,85.92 95.7,85.57 95.53,85.44 95.33,85.33 95.31,85.32 95.28,85.3 95.24,85.28 94.92,85.09 94.08,84.59 92.99,84.56 v 0 c -0.26,0 -0.91,0.41 -0.99,0.45 l -0.04,0.02 0.14,0.39 h 0.03 c 0,0 0.34,0.05 0.56,0.02 z"
           id="path25" />
        <path
           class="cls-2"
           d="m 96.75,88.98 h 0.19 c 0.14,-0.01 0.17,-0.06 0.2,-0.12 0.02,-0.04 0.05,-0.09 0.17,-0.15 0.06,-0.03 0.06,-0.08 0.05,-0.1 -0.07,-0.15 -1.22,-0.21 -1.43,-0.11 -0.1,0.04 -0.3,0.09 -0.5,0.13 -0.28,0.06 -0.57,0.12 -0.7,0.21 -0.06,0.04 -0.16,0.08 -0.27,0.12 -0.25,0.09 -0.54,0.2 -0.51,0.43 0,0.05 0.03,0.09 0.07,0.12 0.04,0.02 0.09,0.04 0.16,0.04 0.19,0 0.48,-0.1 0.81,-0.21 0.08,-0.03 0.16,-0.06 0.22,-0.07 0.19,-0.06 0.25,-0.07 0.38,-0.09 0.1,-0.02 0.25,-0.04 0.52,-0.1 0.42,-0.09 0.54,-0.08 0.66,-0.07 z"
           id="path26" />
        <path
           class="cls-2"
           d="m 94.22,87 c 0.32,0.09 0.89,0.5 1.04,0.67 -0.01,0 -0.02,0.01 -0.03,0.02 -0.11,0.07 -0.35,0.19 -0.57,0.3 -0.5,0.25 -0.64,0.33 -0.66,0.39 v 0.05 c 0,0 0.02,0.03 0.05,0.04 h 0.04 c 0.25,0 1.2,-0.28 1.39,-0.39 0.21,-0.13 0.34,-0.39 0.35,-0.4 V 87.66 L 95.78,87.35 H 95.77 C 95.72,87.25 95.65,87.13 95.55,87 95.37,86.76 94.41,86.24 94.1,86.19 c -0.02,0 -1.65,-0.27 -1.83,-0.09 -0.16,0.15 -0.05,0.56 -0.04,0.61 v 0.04 h 0.11 c 0.08,0 0.28,0 0.52,0.02 0,0.17 0,0.38 0.02,0.52 0,0.04 0.01,0.08 0.02,0.12 0.02,0.17 0.04,0.3 0.17,0.51 0.02,0.03 0.04,0.06 0.06,0.09 0.07,0.11 0.12,0.2 0.27,0.2 0.03,0 0.06,0 0.1,-0.01 0.19,-0.04 0.18,-0.25 0.17,-0.47 0,-0.12 0,-0.24 0.01,-0.35 0.05,-0.22 0.14,-0.36 0.23,-0.47 0.11,0.02 0.22,0.04 0.33,0.07 z"
           id="path27" />
      </g>
    </g>
  </g>
</svg>
