<?xml version="1.0" encoding="UTF-8" standalone="no"?>
<svg
   xmlns:dc="http://purl.org/dc/elements/1.1/"
   xmlns:cc="http://creativecommons.org/ns#"
   xmlns:rdf="http://www.w3.org/1999/02/22-rdf-syntax-ns#"
   xmlns:svg="http://www.w3.org/2000/svg"
   xmlns="http://www.w3.org/2000/svg"
   xmlns:sodipodi="http://sodipodi.sourceforge.net/DTD/sodipodi-0.dtd"
   xmlns:inkscape="http://www.inkscape.org/namespaces/inkscape"
   version="1.1"
   id="Capa_1"
   x="0px"
   y="0px"
   viewBox="0 0 300 300"
   xml:space="preserve"
   inkscape:version="0.92.2 (5c3e80d, 2017-08-06)"
   sodipodi:docname="mIconTemporalProfile.svg"
   width="300"
   height="300"
   inkscape:export-filename="D:\Repositories\QGIS_Plugins\enmap-box\enmapbox\gui\ui\icons\speclib_save.png"
   inkscape:export-xdpi="90"
   inkscape:export-ydpi="90"><metadata
     id="metadata65"><rdf:RDF><cc:Work
         rdf:about=""><dc:format>image/svg+xml</dc:format><dc:type
           rdf:resource="http://purl.org/dc/dcmitype/StillImage" /><dc:title></dc:title></cc:Work></rdf:RDF></metadata><defs
     id="defs63"><marker
       inkscape:stockid="TriangleOutM"
       orient="auto"
       refY="0"
       refX="0"
       id="TriangleOutM"
       style="overflow:visible"
       inkscape:isstock="true"><path
         id="path4411"
         d="M 5.77,0 -2.88,5 V -5 Z"
         style="fill:#4a4135;fill-opacity:1;fill-rule:evenodd;stroke:#4a4135;stroke-width:1.00000003pt;stroke-opacity:1"
         transform="scale(0.4)"
         inkscape:connector-curvature="0" /></marker><marker
       inkscape:stockid="Arrow2Send"
       orient="auto"
       refY="0"
       refX="0"
       id="Arrow2Send"
       style="overflow:visible"
       inkscape:isstock="true"><path
         id="path4299"
         style="fill:#000000;fill-opacity:1;fill-rule:evenodd;stroke:#000000;stroke-width:0.625;stroke-linejoin:round;stroke-opacity:1"
         d="M 8.7185878,4.0337352 -2.2072895,0.01601326 8.7185884,-4.0017078 c -1.7454984,2.3720609 -1.7354408,5.6174519 -6e-7,8.035443 z"
         transform="matrix(-0.3,0,0,-0.3,0.69,0)"
         inkscape:connector-curvature="0" /></marker><marker
       inkscape:stockid="Arrow1Send"
       orient="auto"
       refY="0"
       refX="0"
       id="Arrow1Send"
       style="overflow:visible"
       inkscape:isstock="true"><path
         id="path4281"
         d="M 0,0 5,-5 -12.5,0 5,5 Z"
         style="fill:#000000;fill-opacity:1;fill-rule:evenodd;stroke:#000000;stroke-width:1.00000003pt;stroke-opacity:1"
         transform="matrix(-0.2,0,0,-0.2,-1.2,0)"
         inkscape:connector-curvature="0" /></marker><marker
       inkscape:stockid="TriangleOutL"
       orient="auto"
       refY="0"
       refX="0"
       id="TriangleOutL"
       style="overflow:visible"
       inkscape:isstock="true"><path
         id="path4408"
         d="M 5.77,0 -2.88,5 V -5 Z"
         style="fill:#000000;fill-opacity:1;fill-rule:evenodd;stroke:#000000;stroke-width:1.00000003pt;stroke-opacity:1"
         transform="scale(0.8)"
         inkscape:connector-curvature="0" /></marker><marker
       inkscape:stockid="Arrow1Lend"
       orient="auto"
       refY="0"
       refX="0"
       id="Arrow1Lend"
       style="overflow:visible"
       inkscape:isstock="true"><path
         id="path4269"
         d="M 0,0 5,-5 -12.5,0 5,5 Z"
         style="fill:#000000;fill-opacity:1;fill-rule:evenodd;stroke:#000000;stroke-width:1.00000003pt;stroke-opacity:1"
         transform="matrix(-0.8,0,0,-0.8,-10,0)"
         inkscape:connector-curvature="0" /></marker><inkscape:path-effect
       is_visible="true"
       id="path-effect5756"
       effect="spiro" /></defs><sodipodi:namedview
     pagecolor="#ffffff"
     bordercolor="#666666"
     borderopacity="1"
     objecttolerance="10"
     gridtolerance="10"
     guidetolerance="10"
     inkscape:pageopacity="0"
     inkscape:pageshadow="2"
     inkscape:window-width="1356"
     inkscape:window-height="879"
     id="namedview61"
     showgrid="false"
     inkscape:zoom="1.81"
     inkscape:cx="166.45769"
     inkscape:cy="150"
     inkscape:window-x="32"
     inkscape:window-y="115"
     inkscape:window-maximized="0"
     inkscape:current-layer="Capa_1" /><g
     id="g1752"
     transform="matrix(3.3806955,0,0,3.3806955,228.80341,-216.57917)"><circle
       id="circle3"
       r="16.422657"
       cy="135.06622"
       cx="-50.39016"
       stroke-miterlimit="10"
       style="fill:#6d97c4;fill-opacity:1;stroke:#445e75;stroke-width:0.57265699;stroke-miterlimit:10;stroke-opacity:1" /><path
       id="path5"
       d="m -63.691263,138.04289 c 0.419185,-4.8212 1.360633,-7.71369 4.354483,-10.70754 3.233221,-3.23322 6.227645,-4.73358 11.885496,-6.02092 2.779677,-0.63221 -2.035223,-2.72813 -8.698087,-0.23536 -3.579107,1.33887 -7.212042,4.83323 -8.486777,9.92529 -1.544455,6.16523 0.753044,9.24612 0.944885,7.03853 z"
       inkscape:connector-curvature="0"
       style="opacity:0.3;fill:#ffffff" /><path
       style="fill:none;fill-rule:evenodd;stroke:#ffffff;stroke-width:5.78518581;stroke-linecap:round;stroke-linejoin:miter;stroke-miterlimit:4;stroke-dasharray:none;stroke-opacity:1"
       d="m -42.821085,139.1308 h -6.744387 l -8.393018,-9.29226"
       id="path8235"
       inkscape:connector-curvature="0"
       sodipodi:nodetypes="ccc" /></g><g
     id="g31"
     transform="translate(0,247)" /><g
     id="g33"
     transform="translate(0,247)" /><g
     id="g35"
     transform="translate(0,247)" /><g
     id="g37"
     transform="translate(0,247)" /><g
     id="g39"
     transform="translate(0,247)" /><g
     id="g41"
     transform="translate(0,247)" /><g
     id="g43"
     transform="translate(0,247)" /><g
     id="g45"
     transform="translate(0,247)" /><g
     id="g47"
     transform="translate(0,247)" /><g
     id="g49"
     transform="translate(0,247)" /><g
     id="g51"
     transform="translate(0,247)" /><g
     id="g53"
     transform="translate(0,247)" /><g
     id="g55"
     transform="translate(0,247)" /><g
     id="g57"
     transform="translate(0,247)" /><g
     id="g59"
     transform="translate(0,247)" /><path
     sodipodi:nodetypes="csacsssc"
     inkscape:original-d="M 13.674493,92.30167 C 28.389884,71.934225 52.680276,65.752212 61.146657,69.089468 c 22.310024,8.794107 23.962096,31.787972 41.488103,32.340962 23.04127,0.72701 28.67581,-43.45306 57.11594,-38.9952 19.77322,4.18802 40.33566,2.799415 40.92506,63.89346 0.1031,10.68672 19.8595,25.67705 28.70153,14.2889 9.37837,-12.07896 18.05826,-26.9783 27.03017,-40.50552 9.69496,-14.61737 13.40772,-25.18092 38.6185,-19.8895"
     inkscape:path-effect="#path-effect5756"
     inkscape:connector-curvature="0"
     id="path5754"
     d="m 13.674493,92.30167 c 1.214862,-10.394453 7.996645,-19.971066 17.398142,-24.568064 9.401498,-4.596998 21.124329,-4.068484 30.074022,1.355862 7.685603,4.65819 12.959211,12.306619 18.918611,19.033638 2.9797,3.363509 6.204468,6.559349 9.967666,9.014986 3.763197,2.455636 8.110557,4.149818 12.601826,4.292338 5.97171,0.1895 11.77201,-2.37731 16.50633,-6.021968 4.73431,-3.644658 8.55091,-8.325544 12.28489,-12.989733 3.73398,-4.66419 7.46987,-9.396639 12.08855,-13.186765 4.61868,-3.790125 10.26423,-6.614624 16.23617,-6.796734 3.39191,-0.103434 6.78982,0.652672 9.88304,2.048265 3.09323,1.395594 5.88545,3.421087 8.28292,5.822724 4.79494,4.803273 7.95838,11.017838 10.19174,17.426815 4.46673,12.817956 5.59443,26.949626 12.56736,38.595656 2.95632,4.93757 6.98132,9.33458 12.02418,12.10748 5.04286,2.7729 11.15702,3.80788 16.67735,2.18142 4.02361,-1.18548 7.57089,-3.7126 10.3853,-6.82289 2.81442,-3.11028 4.93529,-6.79099 6.68294,-10.60419 3.49531,-7.62641 5.59631,-15.9146 9.96193,-23.07844 3.96284,-6.502895 9.74452,-11.884189 16.51462,-15.370958 6.77009,-3.486769 14.50855,-5.068687 22.10388,-4.518542"
     style="fill:none;fill-rule:evenodd;stroke:#666666;stroke-width:16.63851929;stroke-linecap:butt;stroke-linejoin:miter;stroke-miterlimit:4;stroke-dasharray:none;stroke-opacity:1" /></svg>