<?xml version="1.0" encoding="UTF-8" standalone="no"?>
<svg
        height="256"
        width="256"
        version="1.1"
        id="svg10"
        sodipodi:docname="satellite.svg"
        inkscape:version="1.4 (86a8ad7, 2024-10-11)"
        xmlns:inkscape="http://www.inkscape.org/namespaces/inkscape"
        xmlns:sodipodi="http://sodipodi.sourceforge.net/DTD/sodipodi-0.dtd"
        xmlns="http://www.w3.org/2000/svg"
>
    <defs
            id="defs10"/>
    <sodipodi:namedview
            id="namedview10"
            pagecolor="#ffffff"
            bordercolor="#000000"
            borderopacity="0.25"
            inkscape:showpageshadow="2"
            inkscape:pageopacity="0.0"
            inkscape:pagecheckerboard="0"
            inkscape:deskcolor="#d1d1d1"
            inkscape:zoom="2.2290436"
            inkscape:cx="81.425054"
            inkscape:cy="102.06171"
            inkscape:window-width="1920"
            inkscape:window-height="1009"
            inkscape:window-x="-8"
            inkscape:window-y="-8"
            inkscape:window-maximized="1"
            inkscape:current-layer="svg10"/>
    <path
            d="M 3.8240397,157.60852 85.367237,105.2327 98.696414,155.72675 17.153216,208.10258 Z"
            fill="#666667"
            id="path1"
            style="stroke-width:7.84069"/>
    <path
            d="M 155.93347,58.345358 234.34038,7.8513016 248.21841,58.031733 169.81149,108.52579 Z"
            fill="#666667"
            id="path2"
            style="stroke-width:7.84069"/>
    <path
            d="m 162.99009,119.18913 c 0,0 -12.23148,3.38718 -22.73801,9.56565 -10.50652,6.24118 -19.36651,15.28934 -19.36651,15.28934 L 87.641036,87.90477 c 0,0 6.499936,-12.074667 17.249524,-18.425628 10.34971,-6.115741 24.855,-6.531295 24.855,-6.531295 z"
            id="path5"
            style="stroke-width:7.84069"/>
    <path
            d="m 139.62662,139.55695 c 19.2881,-12.62352 40.14435,-19.60173 48.61229,-16.54386 -5.33167,-2.4463 -26.50154,-10.58494 -48.92591,2.18755 -23.28686,13.25077 -25.56066,33.87179 -25.56066,41.39885 1.05065,-6.62538 10.82015,-17.17111 25.95269,-27.05039 z"
            fill="#666667"
            stroke-width="31.3628"
            id="path6"/>
    <path
            d="m 192.15926,128.57998 c 0.12546,-0.95657 0.0941,-1.84257 -0.18817,-2.61879 -0.0941,-0.33245 -0.25092,-0.64921 -0.43594,-0.94089 -0.12546,-0.19442 -0.25092,-0.38576 -0.41714,-0.56452 -0.31363,-0.35753 -0.68998,-0.68058 -1.13691,-0.96441 -1.34859,-0.8468 -3.23036,-1.29371 -5.51984,-1.35644 -0.38264,-0.0117 -0.77858,-0.0117 -1.18394,-0.003 -0.81544,0.0174 -1.67007,0.0784 -2.56391,0.17561 -0.44849,0.0502 -0.90952,0.10978 -1.37212,0.17879 -0.21955,0.0343 -0.47045,0.0721 -0.70959,0.10977 -0.47671,0.0784 -0.9644,0.16622 -1.45837,0.26344 -0.25092,0.0502 -0.49866,0.10034 -0.75035,0.15366 -0.50494,0.10664 -1.01929,0.22267 -1.53677,0.34813 -9.87928,2.39142 -22.6596,8.07592 -34.81268,15.99502 -11.76104,7.69171 -20.30739,15.75979 -23.99251,22.11075 -0.18817,0.34183 -0.3889,0.67744 -0.55826,1.01145 -0.18817,0.32931 -0.32932,0.65548 -0.47358,0.97224 -0.15679,0.31989 -0.28225,0.63353 -0.38577,0.94089 -0.40145,1.07417 -0.61784,2.07778 -0.64293,2.99514 -0.008,0.26031 9.5e-4,0.51435 0.0252,0.7629 0.1568,1.47405 0.86248,2.67368 2.21108,3.51263 7.18991,4.5476 29.481,-2.5639 49.8668,-15.9166 0.63666,-0.41711 1.26235,-0.83112 1.88177,-1.24667 14.19165,-9.56565 23.28685,-19.68014 24.14933,-25.95269 z"
            fill="#989898"
            stroke-width="3.13628"
            id="path7"/>
    <circle
            cx="170.98938"
            cy="179.54448"
            r="6.4999337"
            id="circle7"
            style="stroke-width:7.84069"/>
    <g
            fill="none"
            stroke="#000000"
            id="g10"
            transform="matrix(7.8406918,0,0,7.8406918,-11.857345,7.8513016)">
        <path
                d="m 17.2,20 6.08,2.25 1.42,-6.24"
                stroke-width="0.5"
                id="path8"/>
        <path
                d="m 20.7,17 2.65,5.2"
                stroke-width="0.5"
                id="path9"/>
        <path
                d="M 12.2,16 23.3,8.92"
                stroke-width="1.2"
                id="path10"/>
    </g>
</svg>
