<?xml version="1.0" encoding="UTF-8" standalone="no"?>
<svg
   xmlns:dc="http://purl.org/dc/elements/1.1/"
   xmlns:cc="http://creativecommons.org/ns#"
   xmlns:rdf="http://www.w3.org/1999/02/22-rdf-syntax-ns#"
   xmlns:svg="http://www.w3.org/2000/svg"
   xmlns="http://www.w3.org/2000/svg"
   xmlns:sodipodi="http://sodipodi.sourceforge.net/DTD/sodipodi-0.dtd"
   xmlns:inkscape="http://www.inkscape.org/namespaces/inkscape"
   version="1.1"
   id="Capa_1"
   x="0px"
   y="0px"
   viewBox="0 0 300 300"
   xml:space="preserve"
   inkscape:version="0.92.2 5c3e80d, 2017-08-06"
   sodipodi:docname="mIconTemporalProfile.svg"
   width="300"
   height="300"
   inkscape:export-filename="D:\Repositories\QGIS_Plugins\enmap-box\enmapbox\gui\ui\icons\speclib_save.png"
   inkscape:export-xdpi="90"
   inkscape:export-ydpi="90"><metadata
     id="metadata65"><rdf:RDF><cc:Work
         rdf:about=""><dc:format>image/svg+xml</dc:format><dc:type
           rdf:resource="http://purl.org/dc/dcmitype/StillImage" /><dc:title></dc:title></cc:Work></rdf:RDF></metadata><defs
     id="defs63"><marker
       inkscape:stockid="TriangleOutM"
       orient="auto"
       refY="0"
       refX="0"
       id="TriangleOutM"
       style="overflow:visible"
       inkscape:isstock="true"><path
         id="path4411"
         d="M 5.77,0 -2.88,5 V -5 Z"
         style="fill:#4a4135;fill-opacity:1;fill-rule:evenodd;stroke:#4a4135;stroke-width:1.00000003pt;stroke-opacity:1"
         transform="scale(0.4)"
         inkscape:connector-curvature="0" /></marker><marker
       inkscape:stockid="Arrow2Send"
       orient="auto"
       refY="0"
       refX="0"
       id="Arrow2Send"
       style="overflow:visible"
       inkscape:isstock="true"><path
         id="path4299"
         style="fill:#000000;fill-opacity:1;fill-rule:evenodd;stroke:#000000;stroke-width:0.625;stroke-linejoin:round;stroke-opacity:1"
         d="M 8.7185878,4.0337352 -2.2072895,0.01601326 8.7185884,-4.0017078 c -1.7454984,2.3720609 -1.7354408,5.6174519 -6e-7,8.035443 z"
         transform="matrix(-0.3,0,0,-0.3,0.69,0)"
         inkscape:connector-curvature="0" /></marker><marker
       inkscape:stockid="Arrow1Send"
       orient="auto"
       refY="0"
       refX="0"
       id="Arrow1Send"
       style="overflow:visible"
       inkscape:isstock="true"><path
         id="path4281"
         d="M 0,0 5,-5 -12.5,0 5,5 Z"
         style="fill:#000000;fill-opacity:1;fill-rule:evenodd;stroke:#000000;stroke-width:1.00000003pt;stroke-opacity:1"
         transform="matrix(-0.2,0,0,-0.2,-1.2,0)"
         inkscape:connector-curvature="0" /></marker><marker
       inkscape:stockid="TriangleOutL"
       orient="auto"
       refY="0"
       refX="0"
       id="TriangleOutL"
       style="overflow:visible"
       inkscape:isstock="true"><path
         id="path4408"
         d="M 5.77,0 -2.88,5 V -5 Z"
         style="fill:#000000;fill-opacity:1;fill-rule:evenodd;stroke:#000000;stroke-width:1.00000003pt;stroke-opacity:1"
         transform="scale(0.8)"
         inkscape:connector-curvature="0" /></marker><marker
       inkscape:stockid="Arrow1Lend"
       orient="auto"
       refY="0"
       refX="0"
       id="Arrow1Lend"
       style="overflow:visible"
       inkscape:isstock="true"><path
         id="path4269"
         d="M 0,0 5,-5 -12.5,0 5,5 Z"
         style="fill:#000000;fill-opacity:1;fill-rule:evenodd;stroke:#000000;stroke-width:1.00000003pt;stroke-opacity:1"
         transform="matrix(-0.8,0,0,-0.8,-10,0)"
         inkscape:connector-curvature="0" /></marker><inkscape:path-effect
       is_visible="true"
       id="path-effect5756"
       effect="spiro" /></defs><sodipodi:namedview
     pagecolor="#ffffff"
     bordercolor="#666666"
     borderopacity="1"
     objecttolerance="10"
     gridtolerance="10"
     guidetolerance="10"
     inkscape:pageopacity="0"
     inkscape:pageshadow="2"
     inkscape:window-width="1280"
     inkscape:window-height="756"
     id="namedview61"
     showgrid="false"
     inkscape:zoom="1.81"
     inkscape:cx="312.70718"
     inkscape:cy="150"
     inkscape:window-x="32"
     inkscape:window-y="0"
     inkscape:window-maximized="0"
     inkscape:current-layer="Capa_1" /><g
     id="g31"
     transform="translate(0,247)" /><g
     id="g33"
     transform="translate(0,247)" /><g
     id="g35"
     transform="translate(0,247)" /><g
     id="g37"
     transform="translate(0,247)" /><g
     id="g39"
     transform="translate(0,247)" /><g
     id="g41"
     transform="translate(0,247)" /><g
     id="g43"
     transform="translate(0,247)" /><g
     id="g45"
     transform="translate(0,247)" /><g
     id="g47"
     transform="translate(0,247)" /><g
     id="g49"
     transform="translate(0,247)" /><g
     id="g51"
     transform="translate(0,247)" /><g
     id="g53"
     transform="translate(0,247)" /><g
     id="g55"
     transform="translate(0,247)" /><g
     id="g57"
     transform="translate(0,247)" /><g
     id="g59"
     transform="translate(0,247)" /><path
     sodipodi:nodetypes="cscsscsccscc"
     inkscape:original-d="M 11.674493,104.30167 C 24.17994,92.221519 27.306069,87.08991 39.80964,75.012122 52.313208,62.934346 64.8196,88.195158 77.323168,92.222702 c 12.503567,4.027496 3.865833,15.165108 6.991021,31.271608 3.125182,16.10652 29.231361,8.56051 41.734931,12.58805 12.50357,4.02753 7.54528,-11.6503 16.92272,-31.78069 4.68444,-10.056004 16.39028,-16.093684 26.93356,-16.606772 10.56258,-0.514009 10.57996,4.527804 19.95836,16.606772 8.28728,19.66237 10.14154,15.45034 18.75675,36.23696 18.75678,12.07896 9.91475,23.46711 18.75678,12.07896 9.37837,-12.07896 12.50544,-52.34354 28.13514,-60.395021 15.6297,-8.051425 25.00993,-8.053853 37.51353,0"
     inkscape:path-effect="#path-effect5756"
     inkscape:connector-curvature="0"
     id="path5754"
     d="m 11.674493,104.30167 c 1.340575,-7.032942 4.761942,-13.656009 9.721746,-18.819317 4.959805,-5.163308 11.440018,-8.848088 18.413401,-10.470231 7.261735,-1.689219 15.080332,-1.11632 21.898892,1.89922 6.818561,3.01554 12.566656,8.507239 15.614636,15.31136 2.190495,4.889925 2.970765,10.276378 3.668647,15.588878 0.697882,5.31249 1.352944,10.69966 3.322374,15.68273 3.119112,7.89201 9.701242,14.45451 17.776021,17.0642 4.0374,1.30484 8.39565,1.63175 12.57068,0.8753 4.17504,-0.75645 8.15676,-2.60177 11.38823,-5.35145 4.61238,-3.92471 7.52624,-9.4701 9.82936,-15.07126 2.30311,-5.60117 4.12362,-11.43136 7.09336,-16.70943 2.73082,-4.853439 6.45581,-9.206873 11.11069,-12.263877 4.65489,-3.057003 10.26976,-4.762699 15.82287,-4.342895 4.60294,0.347973 9.08393,2.162328 12.63229,5.11482 3.54837,2.952492 6.14711,7.028976 7.32607,11.491952 l 18.75675,36.23696 c 1.01191,3.96256 3.5674,7.50943 7.00583,9.7237 3.43843,2.21428 7.72477,3.0734 11.75095,2.35526 2.89147,-0.51574 5.62021,-1.81503 7.94422,-3.61104 2.324,-1.796 4.25052,-4.07943 5.77035,-6.59274 3.03966,-5.02662 4.43366,-10.87558 5.27226,-16.68963 0.83859,-5.81406 1.16663,-11.70314 2.28986,-17.46897 1.12322,-5.76583 3.11328,-11.507138 6.85845,-16.032641 4.55053,-5.498668 11.61935,-8.824244 18.75677,-8.824244 7.13741,0 14.20623,3.325576 18.75676,8.824244"
     style="fill:none;fill-rule:evenodd;stroke:#666666;stroke-width:16.63851929;stroke-linecap:butt;stroke-linejoin:miter;stroke-miterlimit:4;stroke-dasharray:none;stroke-opacity:1" /><path
     inkscape:connector-curvature="0"
     id="path827"
     d="m 287.83395,210.37039 -141.92832,-77.67263 60.94316,151.36882 24.26463,-39.29874 47.97695,52.45404 18.17016,-17.70698 -49.05006,-51.95053 z"
     style="fill:#ffffff;fill-opacity:1;fill-rule:evenodd;stroke:#000000;stroke-width:7.63374996;stroke-linecap:round;stroke-linejoin:round;stroke-miterlimit:4;stroke-dasharray:none;stroke-opacity:1" /><text
     xml:space="preserve"
     style="font-style:normal;font-variant:normal;font-weight:normal;font-stretch:normal;font-size:135.49559021px;line-height:125%;font-family:'Arial Rounded MT Bold';-inkscape-font-specification:'Arial Rounded MT Bold, Normal';font-variant-ligatures:normal;font-variant-caps:normal;font-variant-numeric:normal;font-feature-settings:normal;text-align:start;letter-spacing:0px;word-spacing:0px;writing-mode:lr-tb;text-anchor:start;fill:#666666;fill-opacity:1;stroke:none;stroke-width:2.54052591px;stroke-linecap:butt;stroke-linejoin:miter;stroke-opacity:1"
     x="0.90348184"
     y="350.36008"
     id="text18893"
     transform="scale(1.2154793,0.82272071)"><tspan
       sodipodi:role="line"
       id="tspan18891"
       x="0.90348184"
       y="350.36008"
       style="font-style:normal;font-variant:normal;font-weight:normal;font-stretch:normal;font-size:135.49559021px;font-family:'Arial Rounded MT Bold';-inkscape-font-specification:'Arial Rounded MT Bold, Normal';font-variant-ligatures:normal;font-variant-caps:normal;font-variant-numeric:normal;font-feature-settings:normal;text-align:start;writing-mode:lr-tb;text-anchor:start;fill:#666666;stroke-width:2.54052591px">t</tspan></text>
</svg>